<svg width="32" height="32" viewBox="0 0 32 32" fill="none" xmlns="http://www.w3.org/2000/svg">
<path d="M7.11561 4.03101C5.09561 3.62751 4.87261 3.40451 4.46911 1.38451C4.44722 1.27627 4.38855 1.17893 4.30307 1.10901C4.21759 1.03909 4.11055 1.00089 4.00011 1.00089C3.88968 1.00089 3.78264 1.03909 3.69716 1.10901C3.61168 1.17893 3.55301 1.27627 3.53111 1.38451C3.12761 3.40451 2.90461 3.62751 0.884113 4.03101C0.775869 4.05291 0.678532 4.11157 0.60861 4.19705C0.538689 4.28254 0.500488 4.38957 0.500488 4.50001C0.500488 4.61045 0.538689 4.71748 0.60861 4.80297C0.678532 4.88845 0.775869 4.94711 0.884113 4.96901C2.90461 5.37251 3.12761 5.59551 3.53111 7.61551C3.55301 7.72375 3.61168 7.82109 3.69716 7.89101C3.78264 7.96094 3.88968 7.99914 4.00011 7.99914C4.11055 7.99914 4.21759 7.96094 4.30307 7.89101C4.38855 7.82109 4.44722 7.72375 4.46911 7.61551C4.87261 5.59551 5.09561 5.37251 7.11561 4.96901C7.22386 4.94711 7.3212 4.88845 7.39112 4.80297C7.46104 4.71748 7.49924 4.61045 7.49924 4.50001C7.49924 4.38957 7.46104 4.28254 7.39112 4.19705C7.3212 4.11157 7.22386 4.05291 7.11561 4.03101ZM4.00011 5.77251C3.88387 5.4861 3.71135 5.22591 3.49278 5.00734C3.27421 4.78877 3.01403 4.61626 2.72761 4.50001C3.01403 4.38376 3.27421 4.21125 3.49278 3.99268C3.71135 3.77411 3.88387 3.51392 4.00011 3.22751C4.11629 3.51397 4.28877 3.77419 4.50735 3.99277C4.72593 4.21135 4.98616 4.38384 5.27261 4.50001C4.98616 4.61618 4.72593 4.78867 4.50735 5.00725C4.28877 5.22583 4.11629 5.48605 4.00011 5.77251Z" fill="white"/>
<path d="M8.13448 11.8045C6.99148 11.576 6.92398 11.5085 6.69548 10.3655C6.6747 10.2627 6.61899 10.1702 6.53778 10.1037C6.45658 10.0373 6.35489 10.001 6.24998 10.001C6.14506 10.001 6.04337 10.0373 5.96217 10.1037C5.88097 10.1702 5.82525 10.2627 5.80448 10.3655C5.57548 11.5085 5.50848 11.576 4.36548 11.8045C4.26264 11.8253 4.17015 11.881 4.10371 11.9622C4.03728 12.0434 4.00098 12.1451 4.00098 12.25C4.00098 12.3549 4.03728 12.4566 4.10371 12.5378C4.17015 12.619 4.26264 12.6747 4.36548 12.6955C5.50848 12.924 5.57548 12.9915 5.80448 14.1345C5.82525 14.2373 5.88097 14.3298 5.96217 14.3963C6.04337 14.4627 6.14506 14.499 6.24998 14.499C6.35489 14.499 6.45658 14.4627 6.53778 14.3963C6.61899 14.3298 6.6747 14.2373 6.69548 14.1345C6.92398 12.9915 6.99148 12.924 8.13448 12.6955C8.23732 12.6747 8.3298 12.619 8.39624 12.5378C8.46268 12.4566 8.49898 12.3549 8.49898 12.25C8.49898 12.1451 8.46268 12.0434 8.39624 11.9622C8.3298 11.881 8.23732 11.8253 8.13448 11.8045ZM6.24998 12.6545C6.1431 12.4931 6.00486 12.3549 5.84348 12.248C6.00486 12.1411 6.1431 12.0029 6.24998 11.8415C6.35685 12.0029 6.49509 12.1411 6.65648 12.248C6.4949 12.3555 6.35664 12.4944 6.24998 12.6565V12.6545Z" fill="white"/>
<path d="M7.22099 18.966L1.00249 25.9165C0.942848 25.9831 0.902159 26.0645 0.884664 26.1522C0.867169 26.2399 0.873509 26.3306 0.903022 26.4151C0.932535 26.4995 0.984142 26.5744 1.05247 26.6321C1.12079 26.6898 1.20333 26.7281 1.29149 26.743L17.5415 29.493C17.5691 29.4976 17.597 29.4999 17.625 29.5C17.7089 29.4999 17.7915 29.4788 17.8651 29.4384C17.9387 29.3981 18.0009 29.3399 18.0461 29.2691C18.0913 29.1984 18.1179 29.1174 18.1236 29.0337C18.1293 28.95 18.1137 28.8662 18.0785 28.79L14.062 20.1175C14.088 20.032 13.4755 17.433 13.4755 17.433C13.4523 17.3386 13.4022 17.253 13.3311 17.1867C13.2601 17.1203 13.1713 17.0761 13.0755 17.0595L12.5155 16.9645L14.65 4.38849C14.661 4.32375 14.6591 4.25748 14.6444 4.19347C14.6298 4.12946 14.6027 4.06896 14.5646 4.01543C14.5266 3.96189 14.4784 3.91637 14.4228 3.88147C14.3672 3.84656 14.3052 3.82295 14.2405 3.81199L12.4345 3.50599C12.3038 3.48494 12.1701 3.51614 12.0622 3.59285C11.9544 3.66957 11.881 3.78564 11.858 3.91599L9.72199 16.492L9.16149 16.397C9.06578 16.382 8.96777 16.3948 8.87913 16.4339C8.79048 16.4729 8.71494 16.5367 8.66149 16.6175L7.22099 18.966ZM5.17699 22.75L4.96099 24.024C4.92099 24.2612 4.8173 24.4831 4.66099 24.666L3.43799 26.091L2.34999 25.908L5.17699 22.75ZM15.2795 28.096L14.5955 26.346C14.5077 26.1221 14.4826 25.8785 14.523 25.6415L14.744 24.3375L13.758 24.1705L13.5365 25.4745C13.4666 25.8906 13.5107 26.3179 13.664 26.711L14.129 27.899L13.474 27.7885L12.7895 26.0385C12.7019 25.8147 12.677 25.5713 12.7175 25.3345L12.939 24.031L11.953 23.863L11.731 25.167C11.6606 25.5829 11.7046 26.0102 11.8585 26.403L12.3235 27.5915L11.6685 27.481L10.9845 25.734C10.8966 25.5096 10.8715 25.2655 10.912 25.028L11.1335 23.725L10.147 23.558L9.92649 24.858C9.85545 25.2743 9.89918 25.7021 10.053 26.0955L10.518 27.2835L8.19999 26.9L9.03149 25.931C9.30606 25.6108 9.4884 25.2219 9.55899 24.806L9.77949 23.5L8.79299 23.332L8.57149 24.636C8.53186 24.8732 8.42812 25.095 8.27149 25.2775L7.04999 26.703L6.39549 26.592L7.22599 25.6235C7.4996 25.3033 7.68152 24.9151 7.75249 24.5L7.97349 23.1965L6.98749 23.0295L6.76649 24.3325C6.72637 24.5697 6.62269 24.7915 6.46649 24.9745L5.24199 26.4L4.58699 26.289L5.41749 25.321C5.69284 25.0004 5.87587 24.611 5.94699 24.1945L6.16799 22.891L5.19999 22.7245L8.04999 19.5415L13.0905 20.3945L16.7725 28.35L15.2795 28.096ZM12.9185 19.35L8.55299 18.611L9.31799 17.4365L12.583 17.989L12.9185 19.35ZM11.528 16.8L10.7105 16.662L12.7605 4.57849L13.58 4.71749L11.528 16.8Z" fill="white"/>
<path d="M24.25 19C25.0357 19.0027 25.8024 18.7578 26.441 18.3L26.5 18.2575L25.915 17.5L25.8555 17.543C25.3867 17.8774 24.8251 18.0572 24.2493 18.0572C23.6734 18.0572 23.1118 17.8774 22.643 17.543L22.585 17.5L22 18.2575L22.057 18.2985C22.6961 18.7571 23.4634 19.0025 24.25 19Z" fill="white"/>
<path d="M29.0695 9.77C28.871 9.77017 28.6739 9.80207 28.4855 9.8645C28.1937 9.49893 27.8092 9.21829 27.372 9.05182C26.9349 8.88535 26.4611 8.83914 26 8.918C25.8016 8.63598 25.5385 8.40551 25.2329 8.24581C24.9272 8.08612 24.5878 8.00184 24.243 8C23.6598 8.011 23.1041 8.2503 22.6953 8.66652C22.2866 9.08273 22.0574 9.64265 22.057 10.226C22.007 10.231 21.957 10.239 21.907 10.2475C21.7463 9.84678 21.4695 9.50322 21.1122 9.2609C20.7548 9.01858 20.3332 8.88855 19.9015 8.8875C19.36 8.8875 18.4095 9.1035 18.0515 10.4975C17.4609 10.6633 16.9407 11.0178 16.5703 11.5068C16.1999 11.9958 15.9996 12.5925 16 13.206C16 14.1905 16.8945 14.923 17.7705 15.5095L19.0515 26.5595C19.0664 26.6804 19.1249 26.7917 19.216 26.8726C19.3072 26.9534 19.4247 26.9982 19.5465 26.9985H29.0095C29.1313 26.9982 29.2489 26.9534 29.34 26.8726C29.4311 26.7917 29.4896 26.6804 29.5045 26.5595L30.986 13.776C31.28 13.3261 31.4567 12.8097 31.5 12.274C31.4853 11.6271 31.2266 11.0096 30.7759 10.5452C30.3252 10.0809 29.7157 9.804 29.0695 9.77ZM16.996 13.206C16.9964 12.7724 17.1512 12.3531 17.4326 12.0232C17.7141 11.6934 18.1038 11.4746 18.532 11.406C18.6242 11.3908 18.7102 11.3499 18.7802 11.288C18.8502 11.2261 18.9012 11.1457 18.9275 11.056L18.991 10.8415C19.2125 9.878 19.7115 9.878 19.9 9.878C20.1909 9.88327 20.4699 9.99402 20.6852 10.1897C20.9005 10.3853 21.0375 10.6525 21.0705 10.9415C21.0817 11.0177 21.1106 11.0903 21.1547 11.1534C21.1989 11.2165 21.2572 11.2684 21.325 11.305C21.3929 11.3419 21.4684 11.3625 21.5456 11.3653C21.6228 11.368 21.6996 11.3529 21.77 11.321C22.0049 11.2079 22.2694 11.1717 22.526 11.2175C22.609 11.2337 22.6947 11.2287 22.7752 11.2031C22.8558 11.1775 22.9286 11.1321 22.987 11.071C23.045 11.0098 23.0864 10.9347 23.1071 10.8529C23.1279 10.7712 23.1273 10.6855 23.1055 10.604C23.0731 10.4938 23.0553 10.3798 23.0525 10.265C23.0422 9.93836 23.1617 9.62093 23.3848 9.38211C23.6079 9.14329 23.9164 9.0025 24.243 8.9905C24.4688 8.99547 24.6887 9.06407 24.8773 9.18844C25.0659 9.3128 25.2155 9.48787 25.309 9.6935C25.361 9.79887 25.4484 9.88259 25.5559 9.92995C25.6634 9.97731 25.7842 9.98529 25.897 9.9525C26.0652 9.90371 26.2394 9.87863 26.4145 9.878C26.6982 9.85658 26.9817 9.92105 27.2282 10.063C27.4747 10.205 27.6727 10.4179 27.7965 10.674C27.8209 10.7449 27.861 10.8093 27.9139 10.8624C27.9669 10.9155 28.0312 10.9559 28.102 10.9805C28.1731 11.0048 28.2488 11.0129 28.3234 11.0043C28.3981 10.9956 28.4698 10.9704 28.5335 10.9305C28.6922 10.8235 28.8782 10.764 29.0695 10.759C29.4518 10.7929 29.8086 10.9652 30.0727 11.2437C30.3369 11.5221 30.4903 11.8874 30.504 12.271C30.4693 12.5696 30.3704 12.8572 30.214 13.114H18.05C17.9799 13.1141 17.9106 13.1289 17.8466 13.1575C17.7826 13.1861 17.7253 13.2278 17.6785 13.28C17.6316 13.3319 17.5964 13.3933 17.5752 13.46C17.554 13.5266 17.5473 13.597 17.5555 13.6665L17.6115 14.1495C17.2908 13.9277 17.0698 13.5889 16.996 13.206ZM28.5655 26.0085H19.9905L18.611 14.1085H29.945L28.5655 26.0085Z" fill="white"/>
<path d="M19.75 7C19.5028 7 19.2611 6.92669 19.0555 6.78934C18.85 6.65199 18.6898 6.45676 18.5952 6.22835C18.5005 5.99995 18.4758 5.74861 18.524 5.50614C18.5723 5.26366 18.6913 5.04093 18.8661 4.86612C19.0409 4.6913 19.2637 4.57225 19.5061 4.52402C19.7486 4.47579 19.9999 4.50054 20.2284 4.59515C20.4568 4.68976 20.652 4.84998 20.7893 5.05554C20.9267 5.2611 21 5.50277 21 5.75C21 6.08152 20.8683 6.39946 20.6339 6.63388C20.3995 6.8683 20.0815 7 19.75 7ZM19.75 5.3685C19.6745 5.3685 19.6008 5.39088 19.538 5.4328C19.4753 5.47471 19.4264 5.5343 19.3975 5.60401C19.3687 5.67372 19.3611 5.75042 19.3758 5.82443C19.3906 5.89843 19.4269 5.96641 19.4802 6.01976C19.5336 6.07312 19.6016 6.10945 19.6756 6.12417C19.7496 6.13889 19.8263 6.13134 19.896 6.10246C19.9657 6.07359 20.0253 6.02469 20.0672 5.96195C20.1091 5.89921 20.1315 5.82545 20.1315 5.75C20.1314 5.64886 20.0911 5.5519 20.0196 5.48039C19.9481 5.40887 19.8511 5.36863 19.75 5.3685Z" fill="white"/>
<path d="M28.25 7.5C27.9039 7.5 27.5655 7.39737 27.2778 7.20507C26.99 7.01278 26.7657 6.73947 26.6332 6.4197C26.5008 6.09993 26.4661 5.74806 26.5336 5.40859C26.6012 5.06913 26.7678 4.75731 27.0126 4.51256C27.2573 4.26782 27.5691 4.10115 27.9086 4.03363C28.2481 3.9661 28.5999 4.00076 28.9197 4.13321C29.2395 4.26566 29.5128 4.48997 29.7051 4.77775C29.8974 5.06554 30 5.40388 30 5.75C30 6.21413 29.8156 6.65925 29.4874 6.98744C29.1592 7.31563 28.7141 7.5 28.25 7.5ZM28.25 5.045C28.1106 5.045 27.9743 5.08635 27.8583 5.16381C27.7424 5.24128 27.652 5.35139 27.5987 5.48021C27.5453 5.60903 27.5313 5.75078 27.5585 5.88754C27.5857 6.0243 27.6529 6.14992 27.7515 6.24851C27.8501 6.34711 27.9757 6.41425 28.1125 6.44145C28.2492 6.46866 28.391 6.4547 28.5198 6.40134C28.6486 6.34798 28.7587 6.25761 28.8362 6.14168C28.9137 6.02574 28.955 5.88944 28.955 5.75C28.9547 5.5631 28.8804 5.38394 28.7482 5.25178C28.6161 5.11963 28.4369 5.04527 28.25 5.045Z" fill="white"/>
<path d="M23.5 3.5C23.2033 3.5 22.9133 3.41203 22.6666 3.2472C22.42 3.08238 22.2277 2.84811 22.1142 2.57403C22.0007 2.29994 21.9709 1.99834 22.0288 1.70737C22.0867 1.41639 22.2296 1.14912 22.4393 0.93934C22.6491 0.729562 22.9164 0.586701 23.2074 0.528823C23.4983 0.470945 23.7999 0.50065 24.074 0.614181C24.3481 0.727713 24.5824 0.919972 24.7472 1.16665C24.912 1.41332 25 1.70333 25 2C25 2.39783 24.842 2.77936 24.5607 3.06066C24.2794 3.34197 23.8978 3.5 23.5 3.5ZM23.5 1.542C23.4094 1.542 23.3209 1.56886 23.2455 1.61919C23.1702 1.66951 23.1115 1.74104 23.0769 1.82473C23.0422 1.90842 23.0331 2.00051 23.0508 2.08935C23.0685 2.1782 23.1121 2.2598 23.1761 2.32386C23.2402 2.38791 23.3218 2.43153 23.4106 2.4492C23.4995 2.46687 23.5916 2.4578 23.6753 2.42314C23.759 2.38847 23.8305 2.32977 23.8808 2.25445C23.9311 2.17913 23.958 2.09058 23.958 2C23.9579 1.87857 23.9096 1.76215 23.8237 1.67629C23.7378 1.59043 23.6214 1.54213 23.5 1.542Z" fill="white"/>
</svg>
