<svg width="18" height="18" viewBox="0 0 18 18" fill="none" xmlns="http://www.w3.org/2000/svg">
<path d="M8.40125 11.7964L0 4.87259V3.62244C0 2.8458 0.629614 2.21619 1.40625 2.21619H16.5938C17.3704 2.21619 18 2.8458 18 3.62244V4.87259L9.59878 11.7964C9.25182 12.0824 8.74818 12.0823 8.40125 11.7964Z" fill="#FFFEFE"/>
<path d="M9 13.4163C9.53033 13.4163 10.0605 13.2381 10.4932 12.8816L18 6.69482V14.3774C18 15.1541 17.3704 15.7837 16.5938 15.7837H1.40625C0.629614 15.7837 0 15.1541 0 14.3774V6.69482L7.50688 12.8816C7.93941 13.238 8.46977 13.4163 9 13.4163Z" fill="#FFFEFE"/>
</svg>
