<svg width="23" height="23" viewBox="0 0 23 23" fill="none" xmlns="http://www.w3.org/2000/svg">
<path d="M18.7722 0H3.478C1.56025 0 0 1.771 0 3.9475V18.3025C0 20.479 1.56025 22.25 3.478 22.25H18.7722C20.6897 22.25 22.25 20.479 22.25 18.3025V3.9475C22.25 1.771 20.6897 0 18.7722 0ZM15.0912 15.154C15.0216 15.2477 14.9322 15.325 14.8295 15.3805C14.7267 15.436 14.613 15.4683 14.4965 15.4752C14.3799 15.4821 14.2632 15.4634 14.1546 15.4204C14.0461 15.3774 13.9482 15.3111 13.868 15.2262L11.15 12.4575L8.417 15.2367C8.33065 15.3282 8.2253 15.3997 8.10837 15.446C7.99143 15.4924 7.86575 15.5126 7.74017 15.5052C7.61459 15.4977 7.49217 15.4629 7.38153 15.403C7.27088 15.3432 7.1747 15.2598 7.09975 15.1588C6.93107 14.943 6.84649 14.6734 6.86175 14.4C6.87086 14.1281 6.9801 13.8692 7.1685 13.673L9.758 11.0398L7.175 8.409C6.99987 8.22631 6.8983 7.98543 6.88975 7.7325C6.8756 7.47826 6.95412 7.22751 7.11075 7.02675C7.18638 6.92719 7.28371 6.84617 7.39534 6.78985C7.50698 6.73354 7.62998 6.70341 7.755 6.70175C7.86342 6.70268 7.97055 6.7254 8.07002 6.76856C8.16949 6.81172 8.25926 6.87445 8.334 6.953L11.0527 9.723L13.7277 7.00225C13.8141 6.91068 13.9194 6.83917 14.0364 6.79274C14.1534 6.74632 14.2791 6.72611 14.4047 6.73355C14.5303 6.74098 14.6528 6.77588 14.7635 6.83579C14.8741 6.89569 14.9703 6.97914 15.0452 7.08025C15.2139 7.29596 15.2985 7.5656 15.2833 7.839C15.274 8.11089 15.1647 8.36978 14.9762 8.566L12.4445 11.141L15.027 13.7718C15.2021 13.9545 15.3035 14.1953 15.312 14.4482C15.3262 14.7025 15.2478 14.9532 15.0912 15.154Z" fill="white"/>
</svg>
