<svg width="26" height="26" viewBox="0 0 26 26" fill="none" xmlns="http://www.w3.org/2000/svg">
<path d="M23.665 19.4392C24.8961 17.4334 25.5462 15.1252 25.543 12.7717V12.7713C25.5462 10.4178 24.8961 8.10957 23.6649 6.10378L23.6579 6.09283C22.5157 4.23117 20.9152 2.69353 19.0092 1.62683C17.1033 0.560124 14.9557 8.9251e-06 12.7715 1.06661e-10C10.5874 -8.92488e-06 8.43977 0.560089 6.53383 1.62677C4.6279 2.69346 3.02734 4.23109 1.88512 6.09274L1.87802 6.10383C0.64991 8.111 9.1158e-06 10.4184 0 12.7715C-9.11561e-06 15.1245 0.649874 17.4319 1.87797 19.4391L1.88519 19.4503C3.02742 21.312 4.62796 22.8496 6.53389 23.9162C8.43982 24.9829 10.5874 25.543 12.7715 25.543C14.9557 25.543 17.1033 24.9829 19.0092 23.9162C20.9151 22.8495 22.5156 21.3119 23.6578 19.4502L23.665 19.4392ZM14.404 23.3541C14.1606 23.5889 13.8805 23.7824 13.5747 23.9269C13.3237 24.0461 13.0494 24.108 12.7715 24.108C12.4936 24.108 12.2192 24.0461 11.9683 23.9269C11.3864 23.6296 10.8882 23.1913 10.5195 22.6519C9.76626 21.5635 9.20809 20.3525 8.86988 19.0728C10.1691 18.9929 11.4696 18.9522 12.7715 18.9507C14.0728 18.9507 15.3734 18.9914 16.6733 19.0729C16.4861 19.7308 16.2523 20.3746 15.9736 20.9993C15.6067 21.8778 15.0737 22.6774 14.404 23.3541ZM1.45997 13.489H6.61133C6.64487 14.9264 6.80068 16.3584 7.07706 17.7694C5.66888 17.8933 4.26429 18.0635 2.8633 18.2799C2.04291 16.8081 1.56335 15.1709 1.45997 13.489ZM2.8633 7.26304C4.26373 7.48006 5.66881 7.65029 7.07853 7.77373C6.80161 9.18463 6.64546 10.6166 6.61179 12.054H1.45997C1.56334 10.3721 2.04291 8.7349 2.8633 7.26304ZM11.139 2.18885C11.3824 1.95402 11.6625 1.76056 11.9683 1.61611C12.2192 1.49685 12.4936 1.43498 12.7715 1.43498C13.0494 1.43498 13.3237 1.49685 13.5747 1.61611C14.1566 1.91333 14.6547 2.35167 15.0235 2.89105C15.7767 3.97943 16.3349 5.1905 16.6731 6.47013C15.3739 6.55008 14.0733 6.59081 12.7715 6.59231C11.4702 6.5923 10.1696 6.55156 8.86965 6.47011C9.05686 5.81218 9.29069 5.16843 9.56938 4.54372C9.93633 3.66516 10.4693 2.8656 11.139 2.18885ZM24.083 12.054H18.9317C18.8981 10.6166 18.7423 9.18461 18.4659 7.77361C19.8741 7.6497 21.2787 7.4795 22.6797 7.26304C23.5001 8.73489 23.9797 10.3721 24.083 12.054ZM8.52033 17.6578C8.2397 16.2849 8.0812 14.8899 8.0467 13.489H17.4964C17.4623 14.8899 17.304 16.2849 17.0237 17.6579C15.6078 17.5649 14.1904 17.5176 12.7715 17.5157C11.3536 17.5157 9.93652 17.563 8.52033 17.6578ZM17.0227 7.88517C17.3033 9.25807 17.4618 10.6531 17.4963 12.054H8.04654C8.08073 10.6531 8.23893 9.25805 8.51931 7.88511C9.93515 7.978 11.3525 8.0254 12.7715 8.0273C14.1894 8.0273 15.6065 7.97991 17.0227 7.88517ZM18.9312 13.489H24.083C23.9796 15.1709 23.5001 16.8081 22.6797 18.2799C21.2792 18.0629 19.8742 17.8927 18.4645 17.7692C18.7414 16.3584 18.8975 14.9264 18.9312 13.489ZM21.8193 5.94227C20.5949 6.11893 19.3668 6.25879 18.135 6.36186C17.9136 5.53762 17.6281 4.73197 17.281 3.95227C16.9642 3.23476 16.5655 2.55626 16.0929 1.93027C18.3768 2.6307 20.381 4.03487 21.8193 5.94227ZM4.75535 4.75535C6.06548 3.44397 7.67729 2.47399 9.44949 1.93044C9.4226 1.96526 9.39494 1.99854 9.36844 2.03408C8.45753 3.34538 7.79402 4.81216 7.41063 6.36208C6.17879 6.25775 4.94982 6.11782 3.7237 5.94227C4.03993 5.52341 4.38462 5.12683 4.75535 4.75535ZM3.7237 19.6007C4.94812 19.424 6.17622 19.2842 7.408 19.1811C7.62938 20.0054 7.9149 20.811 8.26195 21.5907C8.57881 22.3082 8.9775 22.9867 9.45008 23.6127C7.16618 22.9123 5.16198 21.5081 3.7237 19.6007ZM20.7876 20.7876C19.4775 22.099 17.8657 23.069 16.0935 23.6125C16.1204 23.5777 16.148 23.5444 16.1745 23.5089C17.0855 22.1976 17.749 20.7308 18.1324 19.1809C19.3642 19.2852 20.5932 19.4252 21.8193 19.6007C21.5031 20.0196 21.1584 20.4161 20.7876 20.7876Z" fill="white"/>
</svg>
