<svg width="28" height="28" viewBox="0 0 28 28" fill="none" xmlns="http://www.w3.org/2000/svg">
<g clip-path="url(#clip0_4_455)">
<path d="M27.4874 12.7626C27.6499 12.9251 27.7788 13.118 27.8668 13.3303C27.9547 13.5426 28 13.7702 28 14C28 14.2298 27.9547 14.4574 27.8668 14.6697C27.7788 14.882 27.6499 15.075 27.4874 15.2375L19.534 23.1908C19.3715 23.3533 19.1786 23.4822 18.9663 23.5702C18.754 23.6581 18.5264 23.7034 18.2966 23.7034C17.8324 23.7034 17.3873 23.519 17.0591 23.1908C16.7309 22.8626 16.5466 22.4175 16.5466 21.9533C16.5466 21.4892 16.731 21.0441 17.0592 20.7159L22.0251 15.75H7.21875C6.75462 15.75 6.3095 15.5656 5.98131 15.2374C5.65312 14.9092 5.46875 14.4641 5.46875 14C5.46875 13.5359 5.65312 13.0908 5.98131 12.7626C6.3095 12.4344 6.75462 12.25 7.21875 12.25H22.0252L17.0592 7.28405C16.8967 7.12154 16.7678 6.92862 16.6798 6.7163C16.5919 6.50398 16.5466 6.27642 16.5466 6.04661C16.5466 5.81679 16.5919 5.58923 16.6798 5.37691C16.7678 5.16459 16.8967 4.97167 17.0592 4.80916C17.2217 4.64666 17.4146 4.51776 17.6269 4.42981C17.8392 4.34186 18.0668 4.2966 18.2966 4.2966C18.5264 4.2966 18.754 4.34186 18.9663 4.42981C19.1786 4.51776 19.3715 4.64666 19.534 4.80916L27.4874 12.7626ZM5.85156 28H12.9609C13.4251 28 13.8702 27.8156 14.1984 27.4874C14.5266 27.1592 14.7109 26.7141 14.7109 26.25C14.7109 25.7859 14.5266 25.3408 14.1984 25.0126C13.8702 24.6844 13.4251 24.5 12.9609 24.5H5.85156C5.22811 24.4993 4.63039 24.2513 4.18954 23.8105C3.74869 23.3696 3.50071 22.7719 3.5 22.1484V5.85156C3.50071 5.22811 3.74869 4.63039 4.18954 4.18954C4.63039 3.74869 5.22811 3.50071 5.85156 3.5H12.9609C13.4251 3.5 13.8702 3.31563 14.1984 2.98744C14.5266 2.65925 14.7109 2.21413 14.7109 1.75C14.7109 1.28587 14.5266 0.840752 14.1984 0.512563C13.8702 0.184374 13.4251 0 12.9609 0L5.85156 0C4.30017 0.00175141 2.81282 0.618816 1.71582 1.71582C0.618816 2.81282 0.00175141 4.30017 0 5.85156L0 22.1484C0.00175141 23.6998 0.618816 25.1872 1.71582 26.2842C2.81282 27.3812 4.30017 27.9982 5.85156 28Z" fill="white"/>
</g>
<defs>
<clipPath id="clip0_4_455">
<rect width="28" height="28" fill="white"/>
</clipPath>
</defs>
</svg>
