<svg width="27" height="33" viewBox="0 0 27 33" fill="none" xmlns="http://www.w3.org/2000/svg">
<path d="M16.161 16.0371L12.2662 19.9325L10.7191 18.386C10.292 17.9589 9.59961 17.9589 9.1725 18.386C8.7454 18.8131 8.7454 19.5054 9.1725 19.9325L11.4929 22.2529C11.698 22.458 11.9763 22.5734 12.2662 22.5734C12.556 22.5734 12.8344 22.458 13.0395 22.2529L17.7076 17.5837C18.1347 17.1566 18.1347 16.4642 17.7076 16.0366C17.2805 15.61 16.5887 15.61 16.161 16.0371Z" fill="white"/>
<path d="M26.2093 26.6295L24.6152 10.6892C24.3264 7.80227 21.9202 5.62516 19.0195 5.62516H18.1544V5.03562C18.1544 3.69086 17.6305 2.42648 16.6795 1.47438C15.7274 0.523906 14.463 0 13.1177 0C11.7735 0 10.5085 0.523906 9.55752 1.47438C8.60705 2.42484 8.08314 3.68922 8.08314 5.03453V5.62516H7.21798C4.31627 5.62516 1.91056 7.80227 1.62236 10.6892L0.0276717 26.6295C-0.129828 28.2078 0.39025 29.7866 1.45392 30.9624C2.51814 32.1382 4.03791 32.8125 5.62384 32.8125H20.6131C22.1991 32.8125 23.7188 32.1382 24.782 30.963C25.8462 29.7877 26.3668 28.2084 26.2093 26.6295ZM10.2706 5.03453C10.2706 4.27383 10.5665 3.55906 11.1041 3.02148C11.6422 2.48391 12.3575 2.1875 13.1182 2.1875C13.8789 2.1875 14.5942 2.48391 15.1324 3.02148C15.6699 3.55961 15.9663 4.27492 15.9663 5.03562V5.62516H10.2706V5.03453ZM23.1599 29.4946C22.5108 30.2132 21.5822 30.625 20.6131 30.625H5.62384C4.65533 30.625 3.72619 30.2132 3.07595 29.4946C2.42627 28.7766 2.10853 27.8113 2.20478 26.8477L3.79892 10.9074C3.97502 9.1432 5.44502 7.8132 7.21798 7.8132H8.08314V9.08086C8.08314 9.68461 8.57314 10.1746 9.17689 10.1746C9.78064 10.1746 10.2706 9.68461 10.2706 9.08086V7.8132H15.9663V9.08086C15.9663 9.68461 16.4563 10.1746 17.0601 10.1746C17.6638 10.1746 18.1538 9.68461 18.1538 9.08086V7.8132H19.019C20.7914 7.8132 22.262 9.14375 22.4381 10.9074L24.0322 26.8472C24.1285 27.8113 23.8107 28.7766 23.1599 29.4946Z" fill="white"/>
</svg>
