<svg width="32" height="32" viewBox="0 0 32 32" fill="none" xmlns="http://www.w3.org/2000/svg">
<path d="M15.4995 24.5391C14.8449 23.7312 14.6404 22.6472 14.9677 21.6654C15.2847 20.6735 16.0824 19.9167 17.0846 19.6508L19.4162 19.027L20.7251 17.0022C21.032 16.5318 21.4513 16.1636 21.9421 15.9284C23.5579 14.4558 24.5805 12.3492 24.5805 9.99707C24.5805 5.58948 20.9911 2 16.5835 2C12.1759 2 8.5864 5.58948 8.5864 9.99707C8.5864 12.3696 9.61924 14.4865 11.2555 15.9591H10.7033C7.36942 15.9591 4.41398 18.1885 3.50388 21.3893L2.38914 25.3265C2.11301 26.2878 2.30735 27.3002 2.91074 28.1082C3.51408 28.9058 4.43442 29.366 5.44688 29.366H16.9107C16.88 29.1819 16.8698 28.9978 16.88 28.8138L17.013 26.4105L15.4995 24.5391Z" fill="white"/>
<path d="M29.6841 22.2952C29.5772 21.9656 29.3105 21.713 28.976 21.6236L25.8921 20.7972L24.1544 18.1207C23.9656 17.8301 23.6431 17.6548 23.2965 17.6548C22.95 17.6548 22.6274 17.8301 22.4386 18.1202L20.6999 20.7972L17.617 21.6236C17.2825 21.713 17.0159 21.9661 16.909 22.2952C16.8021 22.6248 16.8691 22.9858 17.0868 23.2549L19.0961 25.7357L18.9273 28.9234C18.9093 29.2695 19.0671 29.601 19.3478 29.8047C19.5255 29.9336 19.7363 30 19.949 30C20.0728 30 20.1966 29.9775 20.3155 29.9321L23.2965 28.7876L26.2765 29.9321C26.6001 30.0549 26.9626 30.0085 27.2443 29.8047C27.5239 29.601 27.6827 29.2695 27.6647 28.924L27.4969 25.7357L29.5063 23.2549C29.724 22.9858 29.7909 22.6248 29.6841 22.2952Z" fill="white"/>
</svg>
