<svg width="32" height="32" viewBox="0 0 32 32" fill="none" xmlns="http://www.w3.org/2000/svg">
<path d="M28.2111 24.9984L21.8624 31.36V25.536C21.8624 25.2416 22.1056 24.9984 22.4128 24.9984H28.2111ZM7.83357 27.0848H10.0479V24.8704H7.83357V27.0848ZM10.0479 18.2144V20.4287H7.83357V18.2144H10.0479ZM10.0479 18.2144V20.4287H7.83357V18.2144H10.0479ZM10.0479 11.5712V13.7855H7.83357V11.5712H10.0479ZM10.0479 18.2144V20.4287H7.83357V18.2144H10.0479ZM10.0479 11.5712V13.7855H7.83357V11.5712H10.0479ZM10.0479 18.2144V20.4287H7.83357V18.2144H10.0479ZM10.0479 4.91515V7.12961H7.83357V4.91515H10.0479ZM10.0479 11.5712V13.7855H7.83357V11.5712H10.0479ZM10.0479 18.2144V20.4287H7.83357V18.2144H10.0479ZM10.0479 4.91515V7.12961H7.83357V4.91515H10.0479ZM10.0479 11.5712V13.7855H7.83357V11.5712H10.0479ZM10.0479 18.2144V20.4287H7.83357V18.2144H10.0479ZM28.8511 1.57438V23.7184H22.4128C21.4784 23.7184 20.7104 24.4223 20.6079 25.3312H14.336C13.9775 25.3312 13.696 25.6128 13.696 25.9712C13.696 26.3296 13.9776 26.6112 14.336 26.6112H20.5824V32H4.72318C3.85279 32 3.1488 31.296 3.1488 30.4255V1.57438C3.1488 0.703985 3.85279 0 4.72318 0H27.2768C28.1472 0 28.8511 0.703985 28.8511 1.57438ZM11.3279 24.704C11.3279 24.0896 10.8288 23.5904 10.2015 23.5904H7.66716C7.05279 23.5904 6.55357 24.0896 6.55357 24.704V27.2512C6.55357 27.8655 7.05279 28.3648 7.66716 28.3648H10.2015C10.8288 28.3648 11.3279 27.8655 11.3279 27.2512V24.704ZM11.3279 18.0608C11.3279 17.4464 10.8288 16.9344 10.2015 16.9344H7.66716C7.05279 16.9344 6.55357 17.4464 6.55357 18.0608V20.5952C6.55357 21.2096 7.05279 21.7087 7.66716 21.7087H10.2015C10.8288 21.7087 11.3279 21.2096 11.3279 20.5952V18.0608ZM11.3279 11.4048C11.3279 10.7904 10.8288 10.2912 10.2015 10.2912H7.66716C7.05279 10.2912 6.55357 10.7904 6.55357 11.4048V13.9392C6.55357 14.5536 7.05279 15.0655 7.66716 15.0655H10.2015C10.8288 15.0655 11.3279 14.5536 11.3279 13.9392V11.4048ZM11.3279 4.74875C11.3279 4.13438 10.8288 3.63515 10.2015 3.63515H7.66716C7.05279 3.63515 6.55357 4.13438 6.55357 4.74875V7.29601C6.55357 7.91039 7.05279 8.40961 7.66716 8.40961H10.2015C10.8288 8.40961 11.3279 7.91039 11.3279 7.29601V4.74875ZM25.4464 19.328C25.4464 18.9696 25.1647 18.688 24.8064 18.688H14.336C13.9904 18.688 13.696 18.9696 13.696 19.328C13.696 19.6864 13.9904 19.968 14.336 19.968H24.8064C25.1647 19.968 25.4464 19.6864 25.4464 19.328ZM25.4464 12.672C25.4464 12.3264 25.1647 12.032 24.8064 12.032H14.336C13.9904 12.032 13.696 12.3264 13.696 12.672C13.696 13.0304 13.9904 13.312 14.336 13.312H24.8064C25.1647 13.312 25.4464 13.0304 25.4464 12.672ZM25.4464 6.02875C25.4464 5.67039 25.1647 5.38875 24.8064 5.38875H14.336C13.9904 5.38875 13.696 5.67039 13.696 6.02875C13.696 6.37437 13.9904 6.66875 14.336 6.66875H24.8064C25.1647 6.66875 25.4464 6.37437 25.4464 6.02875ZM7.83357 18.2144H10.0479V20.4287H7.83357V18.2144ZM7.83357 11.5712H10.0479V13.7855H7.83357V11.5712ZM7.83357 4.91515H10.0479V7.12961H7.83357V4.91515ZM10.0479 18.2144V20.4287H7.83357V18.2144H10.0479ZM10.0479 11.5712V13.7855H7.83357V11.5712H10.0479ZM10.0479 18.2144V20.4287H7.83357V18.2144H10.0479ZM10.0479 11.5712V13.7855H7.83357V11.5712H10.0479ZM10.0479 18.2144V20.4287H7.83357V18.2144H10.0479ZM10.0479 18.2144V20.4287H7.83357V18.2144H10.0479Z" fill="white"/>
</svg>
