<svg viewBox="0 0 44 47" fill="none" xmlns="http://www.w3.org/2000/svg">
<path d="M31.5 30.5L34.5 34.5" stroke="black" stroke-width="3" stroke-miterlimit="10" stroke-linecap="round" stroke-linejoin="round"/>
<path d="M31.5 34.5L34.5 30.5" stroke="black" stroke-width="3" stroke-miterlimit="10" stroke-linecap="round" stroke-linejoin="round"/>
<path d="M20.5 30.5L23.5 34.5" stroke="black" stroke-width="3" stroke-miterlimit="10" stroke-linecap="round" stroke-linejoin="round"/>
<path d="M20.5 34.5L23.5 30.5" stroke="black" stroke-width="3" stroke-miterlimit="10" stroke-linecap="round" stroke-linejoin="round"/>
<path d="M8.5 30.5L12.5 34.5" stroke="black" stroke-width="3" stroke-miterlimit="10" stroke-linecap="round" stroke-linejoin="round"/>
<path d="M8.5 34.5L12.5 30.5" stroke="black" stroke-width="3" stroke-miterlimit="10" stroke-linecap="round" stroke-linejoin="round"/>
<path d="M42.5 41.7857C42.5 43.837 40.8312 45.5 38.7727 45.5H5.22727C3.16879 45.5 1.5 43.837 1.5 41.7857V23.2143C1.5 21.163 3.16879 19.5 5.22727 19.5H38.7727C40.8312 19.5 42.5 21.163 42.5 23.2143V41.7857Z" stroke="black" stroke-width="3" stroke-miterlimit="10" stroke-linecap="round" stroke-linejoin="round"/>
<path d="M33.5 19.5V12.75C33.5 6.53681 28.3513 1.5 22 1.5C15.6487 1.5 10.5 6.53681 10.5 12.75V19.5" stroke="black" stroke-width="3" stroke-miterlimit="10" stroke-linecap="round" stroke-linejoin="round"/>
</svg>
