<svg width="24" height="24" viewBox="0 0 24 24" fill="none" xmlns="http://www.w3.org/2000/svg">
<path d="M15.8842 6.22874C15.6203 6.1678 15.4726 6.21046 15.4421 6.24046L14.4404 7.24217L16.7579 9.55967L17.7596 8.55796C17.874 8.44311 17.8093 7.68608 17.0617 6.93842C16.6998 6.57702 16.2709 6.31827 15.8842 6.22874Z" fill="#160B0E"/>
<path d="M6.98975 14.6934L6.45068 17.5495L9.30678 17.0105L15.3579 10.9594L13.0408 8.64233L6.98975 14.6934Z" fill="#160B0E"/>
<path d="M18.3431 0H5.65688C4.15658 0 2.71773 0.595991 1.65686 1.65686C0.595991 2.71773 0 4.15658 0 5.65688L0 18.3431C0 19.8434 0.595991 21.2823 1.65686 22.3431C2.71773 23.404 4.15658 24 5.65688 24H18.3431C19.8434 24 21.2823 23.404 22.3431 22.3431C23.404 21.2823 24 19.8434 24 18.3431V5.65688C24 4.15658 23.404 2.71773 22.3431 1.65686C21.2823 0.595991 19.8434 0 18.3431 0ZM19.1592 9.95766L10.4906 18.6262C10.3502 18.7671 10.1704 18.8621 9.975 18.8991L5.39062 19.7639C5.33022 19.7755 5.26885 19.7813 5.20734 19.7812C5.06194 19.7813 4.91832 19.7492 4.78671 19.6874C4.65509 19.6256 4.53871 19.5356 4.44585 19.4237C4.35298 19.3118 4.28592 19.1808 4.24942 19.0401C4.21292 18.8993 4.20789 18.7523 4.23469 18.6094L5.09953 14.0273C5.13645 13.8319 5.23154 13.6522 5.37234 13.5117L14.0423 4.84078C14.5945 4.28859 15.428 4.09078 16.3303 4.29984C17.0803 4.47281 17.8355 4.91297 18.4613 5.53875C19.087 6.16453 19.5272 6.92156 19.7002 7.66969C19.9083 8.57156 19.7114 9.40547 19.1592 9.95766Z" fill="#160B0E"/>
</svg>
