<svg width="90" height="90" viewBox="0 0 90 90" fill="none" xmlns="http://www.w3.org/2000/svg">
<path d="M45 0C20.1869 0 0 20.1869 0 45C0 69.8131 20.1869 90 45 90C69.8131 90 90 69.8131 90 45C90 20.1869 69.8131 0 45 0ZM45 85.4297C32.7009 85.4297 21.6689 79.9077 14.2476 71.2148V70.2606C14.2476 65.6986 16.2571 61.8451 20.2205 58.8078C23.7964 56.0672 28.8274 54.0991 34.8013 53.0916C37.7905 54.8675 41.2778 55.8891 45 55.8891C48.7222 55.8891 52.2097 54.8673 55.199 53.0914C61.1699 54.0988 66.199 56.0653 69.7746 58.8041C73.7413 61.8421 75.7524 65.6968 75.7524 70.2608V71.215C68.3311 79.9077 57.2991 85.4297 45 85.4297ZM45 51.3186C36.4757 51.3186 29.5406 44.3837 29.5406 35.8594C29.5406 27.335 36.4757 20.4001 45 20.4001C53.5243 20.4001 60.4594 27.335 60.4594 35.8594C60.4594 44.3837 53.5243 51.3186 45 51.3186ZM79.7502 65.6411C78.7129 61.5904 76.2773 58.0275 72.5537 55.1756C69.2021 52.6085 64.8376 50.6391 59.7674 49.3766C63.0336 45.8112 65.0297 41.0643 65.0297 35.8594C65.0297 24.815 56.0445 15.8298 45 15.8298C33.9555 15.8298 24.9703 24.815 24.9703 35.8594C24.9703 41.0643 26.9664 45.8114 30.2328 49.3766C25.1594 50.6398 20.7926 52.611 17.4405 55.1802C13.7203 58.0312 11.2867 61.5925 10.25 65.6411C6.64506 59.5951 4.57031 52.5357 4.57031 45C4.57031 22.7071 22.7071 4.57031 45 4.57031C67.2929 4.57031 85.4297 22.7071 85.4297 45C85.4297 52.5357 83.3549 59.5951 79.7502 65.6411Z" fill="#B12054"/>
</svg>
