<svg width="16" height="16" viewBox="0 0 16 16" fill="none" xmlns="http://www.w3.org/2000/svg">
<g clip-path="url(#clip0_4_398)">
<path d="M14.2765 1.25525C14.2765 1.25525 14.2764 1.25525 14.2762 1.25525H7.14819C6.94348 0.53186 6.27771 0 5.4895 0H4.23438C3.44629 0 2.7804 0.53186 2.57568 1.25525H1.72388C0.773315 1.25525 0 2.02856 0 2.97925V14.276C0 15.2267 0.773315 16 1.72388 16H14.276C15.2266 16 15.9999 15.2267 15.9999 14.276V2.97925C15.9999 2.02881 15.2268 1.25549 14.2765 1.25525ZM14.276 2.19275C14.7096 2.19275 15.0624 2.54553 15.0624 2.97925V3.76562H10.5104C10.0768 3.76562 9.72388 3.41284 9.72388 2.97925V2.19275H14.276ZM4.23438 0.9375H5.4895C5.92322 0.9375 6.276 1.29028 6.276 1.724V11.7656C6.276 12.1992 5.92322 12.552 5.4895 12.552H4.23438C3.80066 12.552 3.44788 12.1993 3.44788 11.7656V1.724C3.44788 1.29028 3.80066 0.9375 4.23438 0.9375ZM14.276 15.0625H1.72388C1.29028 15.0625 0.9375 14.7097 0.9375 14.276V2.97925C0.9375 2.54553 1.29028 2.19275 1.72388 2.19275H2.51038V11.7656C2.51038 12.7162 3.28369 13.4895 4.23438 13.4895H5.4895C6.44019 13.4895 7.2135 12.7162 7.2135 11.7656V2.19275H8.78638V2.97925C8.78638 3.92981 9.55981 4.70312 10.5104 4.70312H15.0624V14.276C15.0624 14.7097 14.7097 15.0625 14.276 15.0625Z" fill="white"/>
<path d="M9.25525 12.5522C9.13184 12.5522 9.01086 12.6022 8.92371 12.6893C8.83655 12.7766 8.7865 12.8975 8.7865 13.021C8.7865 13.144 8.83655 13.265 8.92371 13.3522C9.01086 13.4393 9.13184 13.4897 9.25525 13.4897C9.37866 13.4897 9.49939 13.4393 9.58655 13.3522C9.67407 13.265 9.724 13.144 9.724 13.021C9.724 12.8975 9.67407 12.7766 9.58655 12.6893C9.49939 12.6022 9.37866 12.5522 9.25525 12.5522Z" fill="white"/>
<path d="M11.1381 12.5522C11.0146 12.5522 10.8937 12.6022 10.8065 12.6893C10.7194 12.7766 10.6693 12.8975 10.6693 13.021C10.6693 13.144 10.7194 13.265 10.8065 13.3522C10.8937 13.4393 11.0146 13.4897 11.1381 13.4897C11.2615 13.4897 11.3822 13.4393 11.4694 13.3522C11.5569 13.265 11.6068 13.1444 11.6068 13.021C11.6068 12.8975 11.5569 12.7766 11.4694 12.6893C11.3822 12.6022 11.2615 12.5522 11.1381 12.5522Z" fill="white"/>
<path d="M13.0209 12.5522C12.8975 12.5522 12.7765 12.6022 12.6893 12.6893C12.6022 12.7766 12.5521 12.8975 12.5521 13.021C12.5521 13.144 12.6022 13.265 12.6893 13.3522C12.7765 13.4397 12.8975 13.4897 13.0209 13.4897C13.144 13.4897 13.265 13.4397 13.3522 13.3522C13.4397 13.265 13.4896 13.144 13.4896 13.021C13.4896 12.8975 13.4397 12.7766 13.3522 12.6893C13.265 12.6022 13.144 12.5522 13.0209 12.5522Z" fill="white"/>
<path d="M9.25525 10.5437C9.13184 10.5437 9.01086 10.5938 8.92371 10.6809C8.83655 10.7681 8.7865 10.889 8.7865 11.0125C8.7865 11.136 8.83655 11.2568 8.92371 11.3441C9.01086 11.4313 9.13184 11.4812 9.25525 11.4812C9.37866 11.4812 9.49939 11.4313 9.58655 11.3441C9.67407 11.2568 9.724 11.136 9.724 11.0125C9.724 10.889 9.67407 10.7681 9.58655 10.6809C9.49939 10.5938 9.37866 10.5437 9.25525 10.5437Z" fill="white"/>
<path d="M11.1381 10.5437C11.0146 10.5437 10.8937 10.5938 10.8065 10.6809C10.7194 10.7684 10.6693 10.889 10.6693 11.0125C10.6693 11.136 10.7194 11.2566 10.8065 11.3441C10.8937 11.4313 11.0146 11.4812 11.1381 11.4812C11.2615 11.4812 11.3822 11.4313 11.4694 11.3441C11.5569 11.2566 11.6068 11.136 11.6068 11.0125C11.6068 10.889 11.5569 10.7684 11.4694 10.6809C11.3822 10.5938 11.2615 10.5437 11.1381 10.5437Z" fill="white"/>
<path d="M13.0209 10.5437C12.8975 10.5437 12.7765 10.5938 12.6893 10.6809C12.6022 10.7684 12.5521 10.889 12.5521 11.0125C12.5521 11.136 12.6022 11.2566 12.6893 11.3441C12.7765 11.4313 12.8975 11.4812 13.0209 11.4812C13.144 11.4812 13.265 11.4313 13.3522 11.3441C13.4397 11.2566 13.4896 11.136 13.4896 11.0125C13.4896 10.889 13.4397 10.7684 13.3522 10.6809C13.265 10.5938 13.1443 10.5437 13.0209 10.5437Z" fill="white"/>
<path d="M9.25525 8.53528C9.13184 8.53528 9.01086 8.58533 8.92371 8.67285C8.83655 8.76001 8.7865 8.88062 8.7865 9.00403C8.7865 9.12744 8.83655 9.24841 8.92371 9.33557C9.01086 9.42285 9.13184 9.47278 9.25525 9.47278C9.37866 9.47278 9.49939 9.42285 9.58655 9.33557C9.67407 9.24841 9.724 9.12744 9.724 9.00403C9.724 8.88062 9.67407 8.76001 9.58655 8.67285C9.49939 8.58533 9.37842 8.53528 9.25525 8.53528Z" fill="white"/>
<path d="M11.1381 8.53528C11.0146 8.53528 10.8937 8.58533 10.8065 8.67285C10.7194 8.76001 10.6693 8.88062 10.6693 9.00403C10.6693 9.12744 10.7194 9.24841 10.8065 9.33557C10.8937 9.42285 11.0146 9.47278 11.1381 9.47278C11.2615 9.47278 11.3822 9.42285 11.4694 9.33557C11.5569 9.24841 11.6068 9.12744 11.6068 9.00403C11.6068 8.88062 11.5569 8.76001 11.4694 8.67285C11.3822 8.58533 11.2615 8.53528 11.1381 8.53528Z" fill="white"/>
<path d="M13.0209 8.53528C12.8975 8.53528 12.7765 8.58533 12.6893 8.67285C12.6022 8.76001 12.5521 8.88062 12.5521 9.00403C12.5521 9.12744 12.6022 9.24841 12.6893 9.33557C12.7765 9.42285 12.8975 9.47278 13.0209 9.47278C13.1443 9.47278 13.265 9.42285 13.3522 9.33557C13.4397 9.24841 13.4896 9.12744 13.4896 9.00403C13.4896 8.88062 13.4397 8.76001 13.3522 8.67285C13.265 8.58533 13.1443 8.53528 13.0209 8.53528Z" fill="white"/>
<path d="M9.25525 6.52722C9.13184 6.52722 9.01086 6.57715 8.92371 6.66443C8.83655 6.75159 8.7865 6.87256 8.7865 6.99597C8.7865 7.11938 8.83655 7.23999 8.92371 7.32715C9.01086 7.41467 9.13184 7.46472 9.25525 7.46472C9.37842 7.46472 9.49939 7.41467 9.58655 7.32715C9.67407 7.23999 9.724 7.11938 9.724 6.99597C9.724 6.87256 9.67407 6.75159 9.58655 6.66443C9.49939 6.57715 9.37866 6.52722 9.25525 6.52722Z" fill="white"/>
<path d="M11.1381 6.52722C11.0146 6.52722 10.8937 6.57715 10.8065 6.66443C10.7194 6.75159 10.6693 6.87256 10.6693 6.99597C10.6693 7.11914 10.7194 7.23999 10.8065 7.32715C10.8937 7.41467 11.0146 7.46472 11.1381 7.46472C11.2615 7.46472 11.3822 7.41467 11.4694 7.32715C11.5569 7.23999 11.6068 7.11938 11.6068 6.99597C11.6068 6.87256 11.5569 6.75159 11.4694 6.66443C11.3822 6.57715 11.2615 6.52722 11.1381 6.52722Z" fill="white"/>
<path d="M13.0209 6.52722C12.8975 6.52722 12.7765 6.57715 12.6893 6.66443C12.6022 6.75159 12.5521 6.87256 12.5521 6.99597C12.5521 7.11938 12.6022 7.23999 12.6893 7.32715C12.7765 7.41467 12.8975 7.46472 13.0209 7.46472C13.1443 7.46472 13.265 7.41467 13.3522 7.32715C13.4397 7.23999 13.4896 7.11938 13.4896 6.99597C13.4896 6.87256 13.4397 6.75159 13.3522 6.66443C13.265 6.57715 13.1443 6.52722 13.0209 6.52722Z" fill="white"/>
</g>
<defs>
<clipPath id="clip0_4_398">
<rect width="16" height="16" fill="white"/>
</clipPath>
</defs>
</svg>
