<svg width="34" height="34" viewBox="0 0 34 34" fill="none" xmlns="http://www.w3.org/2000/svg">
<mask id="path-1-outside-1_4_532" maskUnits="userSpaceOnUse" x="1.55396" y="-0.00390625" width="31" height="34" fill="black">
<rect fill="white" x="1.55396" y="-0.00390625" width="31" height="34"/>
<path d="M30.6677 10.1057C29.9233 9.67605 28.969 9.93172 28.5394 10.6761L26.508 14.1943L25.7696 14.448V5.90816C25.7696 5.01766 25.0451 4.29383 24.1552 4.29383H18.9337V3.16293C18.9337 2.94313 18.7551 2.76449 18.5353 2.76449H16.2921C16.1042 1.7591 15.2203 0.996094 14.1618 0.996094C13.1033 0.996094 12.2194 1.7591 12.0315 2.76449H9.78825C9.56845 2.76449 9.38981 2.94313 9.38981 3.16293V4.29383H4.16829C3.27845 4.29383 2.55396 5.01832 2.55396 5.90816V31.3896C2.55396 32.2794 3.27845 33.0039 4.16829 33.0039H24.1546C25.0444 33.0039 25.7689 32.2794 25.7689 31.3896V22.4792C25.9728 22.5157 26.1727 22.5423 26.3652 22.5555C26.5027 22.5655 26.6368 22.5031 26.7172 22.3902C26.7975 22.278 26.8141 22.1312 26.761 22.0037C26.5545 21.511 26.7265 21.0714 27.024 20.7134C27.1548 21.6989 27.4842 22.3391 28.0227 22.6611C28.2658 22.8066 28.5434 22.8789 28.8522 22.8789C29.2792 22.8789 29.7672 22.7408 30.3131 22.4646C30.4174 22.4121 30.4931 22.3165 30.5203 22.2029C30.5475 22.0894 30.5243 21.9698 30.4552 21.8755C29.6304 20.7387 29.4306 19.9132 29.7865 19.1144H29.7858C29.8184 19.0413 29.8297 18.9583 29.8137 18.876L29.2054 15.7516L31.2368 12.2334C31.6678 11.4903 31.4115 10.5354 30.6677 10.1057ZM28.8654 18.1701L24.5842 15.6984L26.7365 14.958L28.4311 15.9362L28.8654 18.1701ZM10.1867 3.56137H12.3934C12.6132 3.56137 12.7918 3.38273 12.7918 3.16293C12.7918 2.40723 13.4061 1.79297 14.1618 1.79297C14.9175 1.79297 15.5317 2.40723 15.5317 3.16293C15.5317 3.38273 15.7104 3.56137 15.9302 3.56137H18.1368V5.69168H10.1867V3.56137ZM24.972 31.3896C24.972 31.8405 24.6055 32.207 24.1546 32.207H4.16829C3.71739 32.207 3.35083 31.8405 3.35083 31.3896V5.90816C3.35083 5.45727 3.71739 5.0907 4.16829 5.0907H9.38981V6.09012C9.38981 6.30992 9.56845 6.48855 9.78825 6.48855H18.5353C18.7551 6.48855 18.9337 6.30992 18.9337 6.09012V5.0907H24.1552C24.6061 5.0907 24.9727 5.45727 24.9727 5.90816V14.7223L23.4985 15.2296C23.4553 15.2442 23.4168 15.2668 23.3823 15.294L23.3816 15.2934L20.7167 17.3885C20.6981 17.3858 20.6795 17.3838 20.6603 17.3838H13.6239C13.4041 17.3838 13.2254 17.5625 13.2254 17.7823C13.2254 18.0021 13.4041 18.1807 13.6239 18.1807H19.7279C19.6237 18.3122 19.6097 18.4995 19.706 18.6462C20.4584 19.7944 21.3476 20.4033 22.0854 20.2745C22.254 20.2453 22.4977 20.1596 22.7189 19.9232C22.7919 20.2738 22.7581 20.5959 22.6199 20.9153C22.5542 21.0667 22.5894 21.2434 22.7069 21.3582C22.8251 21.4738 23.0018 21.5043 23.1518 21.4353C23.5051 21.2726 23.8139 21.0521 24.0756 20.7765C24.0902 21.0136 24.0649 21.2752 23.9992 21.5661C23.9567 21.754 24.055 21.9459 24.2323 22.021C24.4747 22.1232 24.723 22.2122 24.972 22.2879V31.3896ZM28.4318 21.9778C28.0201 21.7321 27.7877 21.001 27.7591 19.8648C27.7551 19.7173 27.6701 19.5839 27.538 19.5181C27.4058 19.4524 27.2478 19.465 27.1283 19.5513C26.0545 20.323 25.8453 21.1198 25.8811 21.6916C25.5405 21.6292 25.1865 21.5316 24.8392 21.4041C24.9355 20.7407 24.8479 20.1782 24.5729 19.6908C24.5026 19.5653 24.3697 19.4882 24.2256 19.4882C24.2243 19.4882 24.223 19.4882 24.221 19.4882C24.0756 19.4896 23.9427 19.5706 23.8743 19.6988C23.7794 19.8761 23.6711 20.0341 23.5483 20.1729C23.5284 19.724 23.3823 19.2558 23.11 18.7611C23.0303 18.617 22.8703 18.5366 22.7076 18.5586C22.5442 18.5805 22.4114 18.7007 22.3736 18.8607C22.3224 19.0765 22.1983 19.4451 21.9479 19.4889C21.6643 19.538 21.1364 19.2459 20.5819 18.5074L23.6625 16.0863L28.9345 19.1303C28.6158 20.1882 29.0255 21.153 29.5348 21.9413C29.0593 22.1193 28.6895 22.1319 28.4318 21.9778ZM30.5475 11.8356L28.641 15.138L27.3222 14.377L29.2287 11.0746C29.4385 10.7113 29.9054 10.5858 30.2686 10.7957C30.6325 11.0055 30.7574 11.4723 30.5475 11.8356ZM13.2254 10.704C13.2254 10.4842 13.4041 10.3056 13.6239 10.3056H22.1212C22.341 10.3056 22.5197 10.4842 22.5197 10.704C22.5197 10.9238 22.341 11.1025 22.1212 11.1025H13.6239C13.4034 11.1025 13.2254 10.9238 13.2254 10.704ZM18.5891 13.4187C18.5891 13.6385 18.4104 13.8171 18.1906 13.8171H13.6232C13.4034 13.8171 13.2248 13.6385 13.2248 13.4187C13.2248 13.1989 13.4034 13.0203 13.6232 13.0203H18.1906C18.4111 13.0203 18.5891 13.1989 18.5891 13.4187ZM13.2254 20.4963C13.2254 20.2765 13.4041 20.0979 13.6239 20.0979H18.1913C18.4111 20.0979 18.5897 20.2765 18.5897 20.4963C18.5897 20.7161 18.4111 20.8947 18.1913 20.8947H13.6239C13.4034 20.8947 13.2254 20.7168 13.2254 20.4963ZM22.519 24.8598C22.519 25.0796 22.3404 25.2583 22.1206 25.2583H13.6239C13.4041 25.2583 13.2254 25.0796 13.2254 24.8598C13.2254 24.64 13.4041 24.4614 13.6239 24.4614H22.1212C22.341 24.4614 22.519 24.6394 22.519 24.8598ZM18.5891 27.5739C18.5891 27.7937 18.4104 27.9723 18.1906 27.9723H13.6232C13.4034 27.9723 13.2248 27.7937 13.2248 27.5739C13.2248 27.3541 13.4034 27.1754 13.6232 27.1754H18.1906C18.4111 27.1754 18.5891 27.3541 18.5891 27.5739ZM8.62747 9.44695C7.07091 9.44695 5.80454 10.7133 5.80454 12.2699C5.80454 13.8264 7.07091 15.0928 8.62747 15.0928C10.184 15.0928 11.4504 13.8264 11.4504 12.2699C11.4504 10.7133 10.184 9.44695 8.62747 9.44695ZM8.62747 14.2959C7.51052 14.2959 6.60142 13.3868 6.60142 12.2699C6.60142 11.1529 7.51052 10.2438 8.62747 10.2438C9.74442 10.2438 10.6535 11.1529 10.6535 12.2699C10.6535 13.3868 9.74442 14.2959 8.62747 14.2959ZM9.9981 11.1768C10.1535 11.3322 10.1535 11.5846 9.9981 11.7406L8.37579 13.3629C8.2981 13.4406 8.19583 13.4798 8.09423 13.4798C7.99263 13.4798 7.89036 13.4406 7.81267 13.3629L7.25751 12.8078C7.10212 12.6524 7.10212 12.4 7.25751 12.244C7.4129 12.0886 7.66524 12.0886 7.8213 12.244L8.09489 12.5176L9.43497 11.1775C9.5897 11.0214 9.84204 11.0214 9.9981 11.1768ZM8.62747 16.5245C7.07091 16.5245 5.80454 17.7909 5.80454 19.3475C5.80454 20.904 7.07091 22.1704 8.62747 22.1704C10.184 22.1704 11.4504 20.904 11.4504 19.3475C11.4504 17.7909 10.184 16.5245 8.62747 16.5245ZM8.62747 21.3742C7.51052 21.3742 6.60142 20.4651 6.60142 19.3481C6.60142 18.2312 7.51052 17.3221 8.62747 17.3221C9.74442 17.3221 10.6535 18.2312 10.6535 19.3481C10.6535 20.4651 9.74442 21.3742 8.62747 21.3742ZM9.9981 18.2551C10.1535 18.4105 10.1535 18.6628 9.9981 18.8189L8.37579 20.4412C8.30142 20.5155 8.19981 20.558 8.09423 20.558C7.98864 20.558 7.88704 20.5162 7.81267 20.4412L7.25751 19.8854C7.10212 19.73 7.10212 19.4776 7.25751 19.3216C7.4129 19.1662 7.66524 19.1662 7.8213 19.3216L8.09489 19.5952L9.43497 18.2551C9.5897 18.099 9.84204 18.099 9.9981 18.2551ZM8.62747 23.6021C7.07091 23.6021 5.80454 24.8685 5.80454 26.425C5.80454 27.9816 7.07091 29.248 8.62747 29.248C10.184 29.248 11.4504 27.9816 11.4504 26.425C11.4504 24.8685 10.184 23.6021 8.62747 23.6021ZM8.62747 28.4518C7.51052 28.4518 6.60142 27.5427 6.60142 26.4257C6.60142 25.3088 7.51052 24.3996 8.62747 24.3996C9.74442 24.3996 10.6535 25.3088 10.6535 26.4257C10.6535 27.5427 9.74442 28.4518 8.62747 28.4518ZM9.9981 25.3327C10.1535 25.488 10.1535 25.7404 9.9981 25.8964L8.37579 27.5187C8.2981 27.5964 8.19583 27.6356 8.09423 27.6356C7.99196 27.6356 7.89036 27.5964 7.81267 27.5187L7.25751 26.9636C7.10212 26.8082 7.10212 26.5559 7.25751 26.3998C7.4129 26.2444 7.66524 26.2444 7.8213 26.3998L8.09489 26.6734L9.43497 25.3333C9.5897 25.1773 9.84204 25.1773 9.9981 25.3327Z"/>
</mask>
<path d="M30.6677 10.1057C29.9233 9.67605 28.969 9.93172 28.5394 10.6761L26.508 14.1943L25.7696 14.448V5.90816C25.7696 5.01766 25.0451 4.29383 24.1552 4.29383H18.9337V3.16293C18.9337 2.94313 18.7551 2.76449 18.5353 2.76449H16.2921C16.1042 1.7591 15.2203 0.996094 14.1618 0.996094C13.1033 0.996094 12.2194 1.7591 12.0315 2.76449H9.78825C9.56845 2.76449 9.38981 2.94313 9.38981 3.16293V4.29383H4.16829C3.27845 4.29383 2.55396 5.01832 2.55396 5.90816V31.3896C2.55396 32.2794 3.27845 33.0039 4.16829 33.0039H24.1546C25.0444 33.0039 25.7689 32.2794 25.7689 31.3896V22.4792C25.9728 22.5157 26.1727 22.5423 26.3652 22.5555C26.5027 22.5655 26.6368 22.5031 26.7172 22.3902C26.7975 22.278 26.8141 22.1312 26.761 22.0037C26.5545 21.511 26.7265 21.0714 27.024 20.7134C27.1548 21.6989 27.4842 22.3391 28.0227 22.6611C28.2658 22.8066 28.5434 22.8789 28.8522 22.8789C29.2792 22.8789 29.7672 22.7408 30.3131 22.4646C30.4174 22.4121 30.4931 22.3165 30.5203 22.2029C30.5475 22.0894 30.5243 21.9698 30.4552 21.8755C29.6304 20.7387 29.4306 19.9132 29.7865 19.1144H29.7858C29.8184 19.0413 29.8297 18.9583 29.8137 18.876L29.2054 15.7516L31.2368 12.2334C31.6678 11.4903 31.4115 10.5354 30.6677 10.1057ZM28.8654 18.1701L24.5842 15.6984L26.7365 14.958L28.4311 15.9362L28.8654 18.1701ZM10.1867 3.56137H12.3934C12.6132 3.56137 12.7918 3.38273 12.7918 3.16293C12.7918 2.40723 13.4061 1.79297 14.1618 1.79297C14.9175 1.79297 15.5317 2.40723 15.5317 3.16293C15.5317 3.38273 15.7104 3.56137 15.9302 3.56137H18.1368V5.69168H10.1867V3.56137ZM24.972 31.3896C24.972 31.8405 24.6055 32.207 24.1546 32.207H4.16829C3.71739 32.207 3.35083 31.8405 3.35083 31.3896V5.90816C3.35083 5.45727 3.71739 5.0907 4.16829 5.0907H9.38981V6.09012C9.38981 6.30992 9.56845 6.48855 9.78825 6.48855H18.5353C18.7551 6.48855 18.9337 6.30992 18.9337 6.09012V5.0907H24.1552C24.6061 5.0907 24.9727 5.45727 24.9727 5.90816V14.7223L23.4985 15.2296C23.4553 15.2442 23.4168 15.2668 23.3823 15.294L23.3816 15.2934L20.7167 17.3885C20.6981 17.3858 20.6795 17.3838 20.6603 17.3838H13.6239C13.4041 17.3838 13.2254 17.5625 13.2254 17.7823C13.2254 18.0021 13.4041 18.1807 13.6239 18.1807H19.7279C19.6237 18.3122 19.6097 18.4995 19.706 18.6462C20.4584 19.7944 21.3476 20.4033 22.0854 20.2745C22.254 20.2453 22.4977 20.1596 22.7189 19.9232C22.7919 20.2738 22.7581 20.5959 22.6199 20.9153C22.5542 21.0667 22.5894 21.2434 22.7069 21.3582C22.8251 21.4738 23.0018 21.5043 23.1518 21.4353C23.5051 21.2726 23.8139 21.0521 24.0756 20.7765C24.0902 21.0136 24.0649 21.2752 23.9992 21.5661C23.9567 21.754 24.055 21.9459 24.2323 22.021C24.4747 22.1232 24.723 22.2122 24.972 22.2879V31.3896ZM28.4318 21.9778C28.0201 21.7321 27.7877 21.001 27.7591 19.8648C27.7551 19.7173 27.6701 19.5839 27.538 19.5181C27.4058 19.4524 27.2478 19.465 27.1283 19.5513C26.0545 20.323 25.8453 21.1198 25.8811 21.6916C25.5405 21.6292 25.1865 21.5316 24.8392 21.4041C24.9355 20.7407 24.8479 20.1782 24.5729 19.6908C24.5026 19.5653 24.3697 19.4882 24.2256 19.4882C24.2243 19.4882 24.223 19.4882 24.221 19.4882C24.0756 19.4896 23.9427 19.5706 23.8743 19.6988C23.7794 19.8761 23.6711 20.0341 23.5483 20.1729C23.5284 19.724 23.3823 19.2558 23.11 18.7611C23.0303 18.617 22.8703 18.5366 22.7076 18.5586C22.5442 18.5805 22.4114 18.7007 22.3736 18.8607C22.3224 19.0765 22.1983 19.4451 21.9479 19.4889C21.6643 19.538 21.1364 19.2459 20.5819 18.5074L23.6625 16.0863L28.9345 19.1303C28.6158 20.1882 29.0255 21.153 29.5348 21.9413C29.0593 22.1193 28.6895 22.1319 28.4318 21.9778ZM30.5475 11.8356L28.641 15.138L27.3222 14.377L29.2287 11.0746C29.4385 10.7113 29.9054 10.5858 30.2686 10.7957C30.6325 11.0055 30.7574 11.4723 30.5475 11.8356ZM13.2254 10.704C13.2254 10.4842 13.4041 10.3056 13.6239 10.3056H22.1212C22.341 10.3056 22.5197 10.4842 22.5197 10.704C22.5197 10.9238 22.341 11.1025 22.1212 11.1025H13.6239C13.4034 11.1025 13.2254 10.9238 13.2254 10.704ZM18.5891 13.4187C18.5891 13.6385 18.4104 13.8171 18.1906 13.8171H13.6232C13.4034 13.8171 13.2248 13.6385 13.2248 13.4187C13.2248 13.1989 13.4034 13.0203 13.6232 13.0203H18.1906C18.4111 13.0203 18.5891 13.1989 18.5891 13.4187ZM13.2254 20.4963C13.2254 20.2765 13.4041 20.0979 13.6239 20.0979H18.1913C18.4111 20.0979 18.5897 20.2765 18.5897 20.4963C18.5897 20.7161 18.4111 20.8947 18.1913 20.8947H13.6239C13.4034 20.8947 13.2254 20.7168 13.2254 20.4963ZM22.519 24.8598C22.519 25.0796 22.3404 25.2583 22.1206 25.2583H13.6239C13.4041 25.2583 13.2254 25.0796 13.2254 24.8598C13.2254 24.64 13.4041 24.4614 13.6239 24.4614H22.1212C22.341 24.4614 22.519 24.6394 22.519 24.8598ZM18.5891 27.5739C18.5891 27.7937 18.4104 27.9723 18.1906 27.9723H13.6232C13.4034 27.9723 13.2248 27.7937 13.2248 27.5739C13.2248 27.3541 13.4034 27.1754 13.6232 27.1754H18.1906C18.4111 27.1754 18.5891 27.3541 18.5891 27.5739ZM8.62747 9.44695C7.07091 9.44695 5.80454 10.7133 5.80454 12.2699C5.80454 13.8264 7.07091 15.0928 8.62747 15.0928C10.184 15.0928 11.4504 13.8264 11.4504 12.2699C11.4504 10.7133 10.184 9.44695 8.62747 9.44695ZM8.62747 14.2959C7.51052 14.2959 6.60142 13.3868 6.60142 12.2699C6.60142 11.1529 7.51052 10.2438 8.62747 10.2438C9.74442 10.2438 10.6535 11.1529 10.6535 12.2699C10.6535 13.3868 9.74442 14.2959 8.62747 14.2959ZM9.9981 11.1768C10.1535 11.3322 10.1535 11.5846 9.9981 11.7406L8.37579 13.3629C8.2981 13.4406 8.19583 13.4798 8.09423 13.4798C7.99263 13.4798 7.89036 13.4406 7.81267 13.3629L7.25751 12.8078C7.10212 12.6524 7.10212 12.4 7.25751 12.244C7.4129 12.0886 7.66524 12.0886 7.8213 12.244L8.09489 12.5176L9.43497 11.1775C9.5897 11.0214 9.84204 11.0214 9.9981 11.1768ZM8.62747 16.5245C7.07091 16.5245 5.80454 17.7909 5.80454 19.3475C5.80454 20.904 7.07091 22.1704 8.62747 22.1704C10.184 22.1704 11.4504 20.904 11.4504 19.3475C11.4504 17.7909 10.184 16.5245 8.62747 16.5245ZM8.62747 21.3742C7.51052 21.3742 6.60142 20.4651 6.60142 19.3481C6.60142 18.2312 7.51052 17.3221 8.62747 17.3221C9.74442 17.3221 10.6535 18.2312 10.6535 19.3481C10.6535 20.4651 9.74442 21.3742 8.62747 21.3742ZM9.9981 18.2551C10.1535 18.4105 10.1535 18.6628 9.9981 18.8189L8.37579 20.4412C8.30142 20.5155 8.19981 20.558 8.09423 20.558C7.98864 20.558 7.88704 20.5162 7.81267 20.4412L7.25751 19.8854C7.10212 19.73 7.10212 19.4776 7.25751 19.3216C7.4129 19.1662 7.66524 19.1662 7.8213 19.3216L8.09489 19.5952L9.43497 18.2551C9.5897 18.099 9.84204 18.099 9.9981 18.2551ZM8.62747 23.6021C7.07091 23.6021 5.80454 24.8685 5.80454 26.425C5.80454 27.9816 7.07091 29.248 8.62747 29.248C10.184 29.248 11.4504 27.9816 11.4504 26.425C11.4504 24.8685 10.184 23.6021 8.62747 23.6021ZM8.62747 28.4518C7.51052 28.4518 6.60142 27.5427 6.60142 26.4257C6.60142 25.3088 7.51052 24.3996 8.62747 24.3996C9.74442 24.3996 10.6535 25.3088 10.6535 26.4257C10.6535 27.5427 9.74442 28.4518 8.62747 28.4518ZM9.9981 25.3327C10.1535 25.488 10.1535 25.7404 9.9981 25.8964L8.37579 27.5187C8.2981 27.5964 8.19583 27.6356 8.09423 27.6356C7.99196 27.6356 7.89036 27.5964 7.81267 27.5187L7.25751 26.9636C7.10212 26.8082 7.10212 26.5559 7.25751 26.3998C7.4129 26.2444 7.66524 26.2444 7.8213 26.3998L8.09489 26.6734L9.43497 25.3333C9.5897 25.1773 9.84204 25.1773 9.9981 25.3327Z" fill="white"/>
<path d="M30.6677 10.1057C29.9233 9.67605 28.969 9.93172 28.5394 10.6761L26.508 14.1943L25.7696 14.448V5.90816C25.7696 5.01766 25.0451 4.29383 24.1552 4.29383H18.9337V3.16293C18.9337 2.94313 18.7551 2.76449 18.5353 2.76449H16.2921C16.1042 1.7591 15.2203 0.996094 14.1618 0.996094C13.1033 0.996094 12.2194 1.7591 12.0315 2.76449H9.78825C9.56845 2.76449 9.38981 2.94313 9.38981 3.16293V4.29383H4.16829C3.27845 4.29383 2.55396 5.01832 2.55396 5.90816V31.3896C2.55396 32.2794 3.27845 33.0039 4.16829 33.0039H24.1546C25.0444 33.0039 25.7689 32.2794 25.7689 31.3896V22.4792C25.9728 22.5157 26.1727 22.5423 26.3652 22.5555C26.5027 22.5655 26.6368 22.5031 26.7172 22.3902C26.7975 22.278 26.8141 22.1312 26.761 22.0037C26.5545 21.511 26.7265 21.0714 27.024 20.7134C27.1548 21.6989 27.4842 22.3391 28.0227 22.6611C28.2658 22.8066 28.5434 22.8789 28.8522 22.8789C29.2792 22.8789 29.7672 22.7408 30.3131 22.4646C30.4174 22.4121 30.4931 22.3165 30.5203 22.2029C30.5475 22.0894 30.5243 21.9698 30.4552 21.8755C29.6304 20.7387 29.4306 19.9132 29.7865 19.1144H29.7858C29.8184 19.0413 29.8297 18.9583 29.8137 18.876L29.2054 15.7516L31.2368 12.2334C31.6678 11.4903 31.4115 10.5354 30.6677 10.1057ZM28.8654 18.1701L24.5842 15.6984L26.7365 14.958L28.4311 15.9362L28.8654 18.1701ZM10.1867 3.56137H12.3934C12.6132 3.56137 12.7918 3.38273 12.7918 3.16293C12.7918 2.40723 13.4061 1.79297 14.1618 1.79297C14.9175 1.79297 15.5317 2.40723 15.5317 3.16293C15.5317 3.38273 15.7104 3.56137 15.9302 3.56137H18.1368V5.69168H10.1867V3.56137ZM24.972 31.3896C24.972 31.8405 24.6055 32.207 24.1546 32.207H4.16829C3.71739 32.207 3.35083 31.8405 3.35083 31.3896V5.90816C3.35083 5.45727 3.71739 5.0907 4.16829 5.0907H9.38981V6.09012C9.38981 6.30992 9.56845 6.48855 9.78825 6.48855H18.5353C18.7551 6.48855 18.9337 6.30992 18.9337 6.09012V5.0907H24.1552C24.6061 5.0907 24.9727 5.45727 24.9727 5.90816V14.7223L23.4985 15.2296C23.4553 15.2442 23.4168 15.2668 23.3823 15.294L23.3816 15.2934L20.7167 17.3885C20.6981 17.3858 20.6795 17.3838 20.6603 17.3838H13.6239C13.4041 17.3838 13.2254 17.5625 13.2254 17.7823C13.2254 18.0021 13.4041 18.1807 13.6239 18.1807H19.7279C19.6237 18.3122 19.6097 18.4995 19.706 18.6462C20.4584 19.7944 21.3476 20.4033 22.0854 20.2745C22.254 20.2453 22.4977 20.1596 22.7189 19.9232C22.7919 20.2738 22.7581 20.5959 22.6199 20.9153C22.5542 21.0667 22.5894 21.2434 22.7069 21.3582C22.8251 21.4738 23.0018 21.5043 23.1518 21.4353C23.5051 21.2726 23.8139 21.0521 24.0756 20.7765C24.0902 21.0136 24.0649 21.2752 23.9992 21.5661C23.9567 21.754 24.055 21.9459 24.2323 22.021C24.4747 22.1232 24.723 22.2122 24.972 22.2879V31.3896ZM28.4318 21.9778C28.0201 21.7321 27.7877 21.001 27.7591 19.8648C27.7551 19.7173 27.6701 19.5839 27.538 19.5181C27.4058 19.4524 27.2478 19.465 27.1283 19.5513C26.0545 20.323 25.8453 21.1198 25.8811 21.6916C25.5405 21.6292 25.1865 21.5316 24.8392 21.4041C24.9355 20.7407 24.8479 20.1782 24.5729 19.6908C24.5026 19.5653 24.3697 19.4882 24.2256 19.4882C24.2243 19.4882 24.223 19.4882 24.221 19.4882C24.0756 19.4896 23.9427 19.5706 23.8743 19.6988C23.7794 19.8761 23.6711 20.0341 23.5483 20.1729C23.5284 19.724 23.3823 19.2558 23.11 18.7611C23.0303 18.617 22.8703 18.5366 22.7076 18.5586C22.5442 18.5805 22.4114 18.7007 22.3736 18.8607C22.3224 19.0765 22.1983 19.4451 21.9479 19.4889C21.6643 19.538 21.1364 19.2459 20.5819 18.5074L23.6625 16.0863L28.9345 19.1303C28.6158 20.1882 29.0255 21.153 29.5348 21.9413C29.0593 22.1193 28.6895 22.1319 28.4318 21.9778ZM30.5475 11.8356L28.641 15.138L27.3222 14.377L29.2287 11.0746C29.4385 10.7113 29.9054 10.5858 30.2686 10.7957C30.6325 11.0055 30.7574 11.4723 30.5475 11.8356ZM13.2254 10.704C13.2254 10.4842 13.4041 10.3056 13.6239 10.3056H22.1212C22.341 10.3056 22.5197 10.4842 22.5197 10.704C22.5197 10.9238 22.341 11.1025 22.1212 11.1025H13.6239C13.4034 11.1025 13.2254 10.9238 13.2254 10.704ZM18.5891 13.4187C18.5891 13.6385 18.4104 13.8171 18.1906 13.8171H13.6232C13.4034 13.8171 13.2248 13.6385 13.2248 13.4187C13.2248 13.1989 13.4034 13.0203 13.6232 13.0203H18.1906C18.4111 13.0203 18.5891 13.1989 18.5891 13.4187ZM13.2254 20.4963C13.2254 20.2765 13.4041 20.0979 13.6239 20.0979H18.1913C18.4111 20.0979 18.5897 20.2765 18.5897 20.4963C18.5897 20.7161 18.4111 20.8947 18.1913 20.8947H13.6239C13.4034 20.8947 13.2254 20.7168 13.2254 20.4963ZM22.519 24.8598C22.519 25.0796 22.3404 25.2583 22.1206 25.2583H13.6239C13.4041 25.2583 13.2254 25.0796 13.2254 24.8598C13.2254 24.64 13.4041 24.4614 13.6239 24.4614H22.1212C22.341 24.4614 22.519 24.6394 22.519 24.8598ZM18.5891 27.5739C18.5891 27.7937 18.4104 27.9723 18.1906 27.9723H13.6232C13.4034 27.9723 13.2248 27.7937 13.2248 27.5739C13.2248 27.3541 13.4034 27.1754 13.6232 27.1754H18.1906C18.4111 27.1754 18.5891 27.3541 18.5891 27.5739ZM8.62747 9.44695C7.07091 9.44695 5.80454 10.7133 5.80454 12.2699C5.80454 13.8264 7.07091 15.0928 8.62747 15.0928C10.184 15.0928 11.4504 13.8264 11.4504 12.2699C11.4504 10.7133 10.184 9.44695 8.62747 9.44695ZM8.62747 14.2959C7.51052 14.2959 6.60142 13.3868 6.60142 12.2699C6.60142 11.1529 7.51052 10.2438 8.62747 10.2438C9.74442 10.2438 10.6535 11.1529 10.6535 12.2699C10.6535 13.3868 9.74442 14.2959 8.62747 14.2959ZM9.9981 11.1768C10.1535 11.3322 10.1535 11.5846 9.9981 11.7406L8.37579 13.3629C8.2981 13.4406 8.19583 13.4798 8.09423 13.4798C7.99263 13.4798 7.89036 13.4406 7.81267 13.3629L7.25751 12.8078C7.10212 12.6524 7.10212 12.4 7.25751 12.244C7.4129 12.0886 7.66524 12.0886 7.8213 12.244L8.09489 12.5176L9.43497 11.1775C9.5897 11.0214 9.84204 11.0214 9.9981 11.1768ZM8.62747 16.5245C7.07091 16.5245 5.80454 17.7909 5.80454 19.3475C5.80454 20.904 7.07091 22.1704 8.62747 22.1704C10.184 22.1704 11.4504 20.904 11.4504 19.3475C11.4504 17.7909 10.184 16.5245 8.62747 16.5245ZM8.62747 21.3742C7.51052 21.3742 6.60142 20.4651 6.60142 19.3481C6.60142 18.2312 7.51052 17.3221 8.62747 17.3221C9.74442 17.3221 10.6535 18.2312 10.6535 19.3481C10.6535 20.4651 9.74442 21.3742 8.62747 21.3742ZM9.9981 18.2551C10.1535 18.4105 10.1535 18.6628 9.9981 18.8189L8.37579 20.4412C8.30142 20.5155 8.19981 20.558 8.09423 20.558C7.98864 20.558 7.88704 20.5162 7.81267 20.4412L7.25751 19.8854C7.10212 19.73 7.10212 19.4776 7.25751 19.3216C7.4129 19.1662 7.66524 19.1662 7.8213 19.3216L8.09489 19.5952L9.43497 18.2551C9.5897 18.099 9.84204 18.099 9.9981 18.2551ZM8.62747 23.6021C7.07091 23.6021 5.80454 24.8685 5.80454 26.425C5.80454 27.9816 7.07091 29.248 8.62747 29.248C10.184 29.248 11.4504 27.9816 11.4504 26.425C11.4504 24.8685 10.184 23.6021 8.62747 23.6021ZM8.62747 28.4518C7.51052 28.4518 6.60142 27.5427 6.60142 26.4257C6.60142 25.3088 7.51052 24.3996 8.62747 24.3996C9.74442 24.3996 10.6535 25.3088 10.6535 26.4257C10.6535 27.5427 9.74442 28.4518 8.62747 28.4518ZM9.9981 25.3327C10.1535 25.488 10.1535 25.7404 9.9981 25.8964L8.37579 27.5187C8.2981 27.5964 8.19583 27.6356 8.09423 27.6356C7.99196 27.6356 7.89036 27.5964 7.81267 27.5187L7.25751 26.9636C7.10212 26.8082 7.10212 26.5559 7.25751 26.3998C7.4129 26.2444 7.66524 26.2444 7.8213 26.3998L8.09489 26.6734L9.43497 25.3333C9.5897 25.1773 9.84204 25.1773 9.9981 25.3327Z" stroke="white" stroke-width="0.6" mask="url(#path-1-outside-1_4_532)"/>
</svg>
