<svg width="26" height="26" viewBox="0 0 26 26" fill="none" xmlns="http://www.w3.org/2000/svg">
<g clip-path="url(#clip0_4_446)">
<path d="M14.6251 26H11.3751C10.0312 26 8.93756 24.9064 8.93756 23.5625V21.866C8.3745 21.6084 7.84231 21.3005 7.34831 20.9463L5.88419 21.7953C5.32844 22.1228 4.67275 22.2121 4.04063 22.0456C3.40688 21.8774 2.87875 21.4719 2.55294 20.904L0.929564 18.0944C0.261689 16.9284 0.661439 15.4367 1.81925 14.7672L3.29069 13.9141C3.26388 13.6126 3.25006 13.3071 3.25006 13C3.25006 12.6929 3.26388 12.3874 3.29069 12.0859L1.81925 11.2328C0.662252 10.5633 0.261689 9.07156 0.927939 7.90806L2.55456 5.09438C2.87875 4.52887 3.40688 4.12344 4.04063 3.95525C4.67031 3.7895 5.32763 3.87644 5.88825 4.20875L7.34831 5.05375C7.84231 4.6995 8.3745 4.39156 8.93756 4.134V2.4375C8.93756 1.09362 10.0312 0 11.3751 0H14.6251C15.9689 0 17.0626 1.09362 17.0626 2.4375V4.134C17.6248 4.39156 18.157 4.69869 18.6518 5.05375L20.1159 4.20469C20.6733 3.87725 21.3298 3.78788 21.9603 3.95444C22.5941 4.12262 23.1222 4.52806 23.448 5.096L25.0714 7.90562C25.7384 9.07156 25.3387 10.5633 24.1809 11.2328L22.7094 12.0859C22.7363 12.3874 22.7501 12.6929 22.7501 13C22.7501 13.3071 22.7363 13.6126 22.7094 13.9141L24.1817 14.7672C25.3387 15.4367 25.7384 16.9284 25.073 18.0919L23.4464 20.9064C23.1222 21.4719 22.5941 21.8774 21.9603 22.0456C21.3306 22.2121 20.6733 22.1236 20.1119 21.7921L18.6526 20.9463C18.1578 21.3013 17.6256 21.6076 17.0634 21.866V23.5625C17.0626 24.9064 15.9689 26 14.6251 26ZM7.41006 19.1588C7.59288 19.1588 7.77488 19.2205 7.92275 19.3416C8.55081 19.8526 9.265 20.267 10.045 20.5717C10.3578 20.6936 10.5626 20.9934 10.5626 21.3281V23.5625C10.5626 24.011 10.9274 24.375 11.3751 24.375H14.6251C15.0736 24.375 15.4376 24.011 15.4376 23.5625V21.3281C15.4376 20.9934 15.6431 20.6936 15.9543 20.5709C16.7343 20.2662 17.4485 19.8526 18.0774 19.3408C18.3398 19.1279 18.7054 19.1003 18.9979 19.2676L20.9317 20.3889C21.1194 20.5002 21.3363 20.5278 21.5435 20.4734C21.7548 20.4181 21.9294 20.2833 22.0367 20.0947L23.6633 17.2803C23.8843 16.8935 23.7519 16.3954 23.3668 16.172L21.4322 15.0507C21.1446 14.8834 20.9878 14.5584 21.0365 14.2285C21.095 13.832 21.1251 13.4192 21.1251 13C21.1251 12.5808 21.095 12.168 21.0365 11.7699C20.9878 11.4408 21.1446 11.115 21.4322 10.9476L23.3659 9.82638C23.7527 9.60294 23.8851 9.10406 23.6617 8.71569L22.0383 5.90688C21.9286 5.71675 21.7539 5.58188 21.5435 5.52581C21.3363 5.47056 21.1202 5.499 20.9366 5.60787L18.9979 6.73238C18.7063 6.89975 18.3398 6.87294 18.0774 6.65925C17.4485 6.14738 16.7343 5.73381 15.9543 5.42913C15.6431 5.30644 15.4376 5.00663 15.4376 4.67188V2.4375C15.4376 1.989 15.0736 1.625 14.6251 1.625H11.3751C10.9274 1.625 10.5626 1.989 10.5626 2.4375V4.67188C10.5626 5.00663 10.3578 5.30644 10.0458 5.42913C9.26581 5.73381 8.55163 6.14819 7.92356 6.65925C7.66113 6.87213 7.29469 6.90056 7.003 6.73238L5.06925 5.61112C4.87994 5.49981 4.66381 5.46894 4.45663 5.52581C4.24619 5.58106 4.07069 5.71594 3.96263 5.90444L2.336 8.71812C2.115 9.10487 2.24744 9.60294 2.63338 9.82638L4.56713 10.9476C4.85475 11.115 5.01238 11.44 4.96363 11.7699C4.90513 12.168 4.87506 12.5808 4.87506 13C4.87506 13.4192 4.90513 13.832 4.96363 14.2301C5.01238 14.5592 4.85556 14.885 4.56713 15.0524L2.63338 16.1736C2.24663 16.3971 2.11419 16.8959 2.33763 17.2843L3.961 20.0939C4.07069 20.2841 4.24619 20.4189 4.45663 20.475C4.66544 20.5311 4.88075 20.501 5.06438 20.3929L7.003 19.2684C7.12894 19.1953 7.27031 19.1588 7.41006 19.1588Z" fill="white"/>
<path d="M13 18.6875C9.86375 18.6875 7.3125 16.1354 7.3125 13C7.3125 9.86456 9.86375 7.3125 13 7.3125C16.1354 7.3125 18.6875 9.86456 18.6875 13C18.6875 16.1354 16.1354 18.6875 13 18.6875ZM13 8.9375C10.7599 8.9375 8.9375 10.7599 8.9375 13C8.9375 15.2401 10.7599 17.0625 13 17.0625C15.2401 17.0625 17.0625 15.2401 17.0625 13C17.0625 10.7599 15.2401 8.9375 13 8.9375Z" fill="white"/>
</g>
<defs>
<clipPath id="clip0_4_446">
<rect width="26" height="26" fill="white"/>
</clipPath>
</defs>
</svg>
