<svg width="31" height="31" viewBox="0 0 31 31" fill="none" xmlns="http://www.w3.org/2000/svg">
<g clip-path="url(#clip0_2_300)">
<mask id="mask0_2_300" style="mask-type:luminance" maskUnits="userSpaceOnUse" x="0" y="0" width="31" height="31">
<path d="M0 0H31V31H0V0Z" fill="white"/>
</mask>
<g mask="url(#mask0_2_300)">
<path d="M9.04167 20.6667C9.75503 20.6667 10.3333 20.0884 10.3333 19.375C10.3333 18.6617 9.75503 18.0834 9.04167 18.0834C8.32831 18.0834 7.75 18.6617 7.75 19.375C7.75 20.0884 8.32831 20.6667 9.04167 20.6667Z" fill="white"/>
<path d="M16.7917 19.375C16.7917 20.0884 16.2134 20.6667 15.5 20.6667C14.7867 20.6667 14.2084 20.0884 14.2084 19.375C14.2084 18.6617 14.7867 18.0834 15.5 18.0834C16.2134 18.0834 16.7917 18.6617 16.7917 19.375Z" fill="white"/>
<path d="M21.9583 20.6667C22.6717 20.6667 23.25 20.0884 23.25 19.375C23.25 18.6617 22.6717 18.0834 21.9583 18.0834C21.2449 18.0834 20.6666 18.6617 20.6666 19.375C20.6666 20.0884 21.2449 20.6667 21.9583 20.6667Z" fill="white"/>
<path fill-rule="evenodd" clip-rule="evenodd" d="M9.04167 2.58335C9.04167 1.86999 8.46336 1.29169 7.75 1.29169C7.03664 1.29169 6.45833 1.86999 6.45833 2.58335V3.87502H3.875C1.7349 3.87502 0 5.60992 0 7.75002V25.8334C0 27.9735 1.73489 29.7084 3.875 29.7084H27.125C29.2652 29.7084 31 27.9735 31 25.8334V12.9167C31.7134 12.9167 32.2917 12.3384 32.2917 11.625C32.2917 10.9116 31.7134 10.3334 31 10.3334V7.75002C31 5.60992 29.2652 3.87502 27.125 3.87502H24.5417V2.58335C24.5417 1.86999 23.9634 1.29169 23.25 1.29169C22.5366 1.29169 21.9583 1.86999 21.9583 2.58335V3.87502H9.04167V2.58335ZM27.125 6.45835C27.8384 6.45835 28.4167 7.03665 28.4167 7.75002V10.3334H2.58333V7.75002C2.58333 7.03666 3.16164 6.45835 3.875 6.45835H27.125ZM2.58333 25.8334V12.9167H28.4167V25.8334C28.4167 26.5467 27.8384 27.125 27.125 27.125H3.875C3.16164 27.125 2.58333 26.5467 2.58333 25.8334Z" fill="white"/>
</g>
</g>
<defs>
<clipPath id="clip0_2_300">
<rect width="31" height="31" fill="white"/>
</clipPath>
</defs>
</svg>
