<svg width="32" height="32" viewBox="0 0 32 32" fill="none" xmlns="http://www.w3.org/2000/svg">
<g clip-path="url(#clip0_2_250)">
<path d="M15.9999 7.76504C17.3237 7.76504 18.3967 6.69195 18.3967 5.36824C18.3967 4.04452 17.3237 2.97144 15.9999 2.97144C14.6762 2.97144 13.6031 4.04452 13.6031 5.36824C13.6031 6.69195 14.6762 7.76504 15.9999 7.76504Z" fill="white"/>
<path d="M27.583 15.306V8.95647H20.2388L20.8822 7.76751L21.0302 7.43105C21.1038 7.24735 21.1677 7.05855 21.2211 6.8655C21.3487 6.40451 21.4172 5.91889 21.4172 5.41727C21.4172 2.4254 18.9918 0 16 0C13.0082 0 10.5828 2.4254 10.5828 5.41721C10.5828 5.91882 10.6513 6.40444 10.7789 6.86544C10.83 7.05006 10.8904 7.23082 10.96 7.40702L11.1242 7.78024L11.7607 8.95641H4.41698V15.3059C1.90354 15.7757 0 17.9774 0 20.6271C0 21.1287 0.0685061 21.6143 0.196114 22.0754C0.247184 22.26 0.307592 22.4408 0.377143 22.6169L0.541388 22.9902L5.41721 32L10.2994 22.9774L10.4474 22.6409C10.5211 22.4571 10.5849 22.2684 10.6383 22.0754C10.7659 21.6143 10.8344 21.1287 10.8344 20.6271C10.8344 17.9772 8.93068 15.7755 6.41698 15.3059V10.9564H12.6416V10.5843L16 16.7901L19.3584 10.5834V10.9563H25.583V15.3059C23.0694 15.7755 21.1656 17.9772 21.1656 20.6271C21.1656 21.1287 21.2341 21.6142 21.3616 22.0753C21.4128 22.2599 21.4731 22.4407 21.5427 22.6168L21.707 22.9901L26.5828 32L31.465 22.9774L31.613 22.6409C31.6867 22.4571 31.7505 22.2684 31.8039 22.0754C31.9314 21.6143 32 21.1287 32 20.6271C32 17.9774 30.0964 15.7757 27.583 15.306ZM8.83442 20.6271C8.83442 20.9377 8.79282 21.2455 8.71079 21.5419C8.6799 21.6535 8.64353 21.7628 8.60186 21.8696L8.50162 22.0972L5.41708 27.7977L2.33927 22.1101L2.22498 21.8505C2.18638 21.7499 2.15262 21.6468 2.12362 21.5418C2.0416 21.2455 2 20.9377 2 20.6271C2 18.7429 3.53286 17.2099 5.41721 17.2099C7.30155 17.2099 8.83442 18.7429 8.83442 20.6271ZM19.1846 6.65966L19.0844 6.88731L15.9999 12.5878L12.922 6.90024L12.8077 6.64052C12.7691 6.53989 12.7354 6.43683 12.7064 6.33195C12.6244 6.03566 12.5828 5.7278 12.5828 5.41721C12.5828 3.53293 14.1157 2 16 2C17.8842 2 19.4172 3.53293 19.4172 5.41721C19.4172 5.7278 19.3756 6.03553 19.2936 6.33195C19.2626 6.44362 19.2263 6.55295 19.1846 6.65966ZM29.8764 21.5419C29.8455 21.6535 29.809 21.7628 29.7674 21.8696L29.6672 22.0972L26.5827 27.7976L23.5048 22.11L23.3906 21.8507C23.352 21.7499 23.3183 21.6468 23.2892 21.5419C23.2072 21.2455 23.1656 20.9377 23.1656 20.6271C23.1656 18.7429 24.6985 17.2099 26.5828 17.2099C28.4671 17.2099 30 18.7429 30 20.6271C30 20.9377 29.9584 21.2454 29.8764 21.5419Z" fill="white"/>
<path d="M26.5828 22.9748C27.9066 22.9748 28.9796 21.9017 28.9796 20.578C28.9796 19.2543 27.9066 18.1812 26.5828 18.1812C25.2591 18.1812 24.186 19.2543 24.186 20.578C24.186 21.9017 25.2591 22.9748 26.5828 22.9748Z" fill="white"/>
<path d="M5.41719 22.9749C6.7409 22.9749 7.81399 21.9018 7.81399 20.5781C7.81399 19.2544 6.7409 18.1813 5.41719 18.1813C4.09347 18.1813 3.02039 19.2544 3.02039 20.5781C3.02039 21.9018 4.09347 22.9749 5.41719 22.9749Z" fill="white"/>
</g>
<defs>
<clipPath id="clip0_2_250">
<rect width="32" height="32" fill="white"/>
</clipPath>
</defs>
</svg>
