<svg width="31" height="31" viewBox="0 0 31 31" fill="none" xmlns="http://www.w3.org/2000/svg">
<g clip-path="url(#clip0_2_210)">
<path d="M15.5 11.8066C13.4964 11.8066 11.8672 13.4359 11.8672 15.4395C11.8672 17.443 13.4964 19.0723 15.5 19.0723C17.5036 19.0723 19.1328 17.443 19.1328 15.4395C19.1328 13.4359 17.5036 11.8066 15.5 11.8066Z" fill="white"/>
<path d="M8.23438 0C5.73058 0 3.69336 2.03722 3.69336 4.54102C3.69336 7.04481 5.73058 9.08203 8.23438 9.08203C10.7382 9.08203 12.7754 7.04481 12.7754 4.54102C12.7754 2.03722 10.7382 0 8.23438 0Z" fill="white"/>
<path d="M22.7656 0C20.2618 0 18.2246 2.03722 18.2246 4.54102C18.2246 7.04481 20.2618 9.08203 22.7656 9.08203C25.2694 9.08203 27.3066 7.04481 27.3066 4.54102C27.3066 2.03722 25.2694 0 22.7656 0Z" fill="white"/>
<path d="M15.5 20.8887C14.7402 20.8887 14.0192 20.7283 13.3632 20.4447L15.5 23.0075L17.6368 20.4447C16.9808 20.7283 16.2597 20.8887 15.5 20.8887Z" fill="white"/>
<path d="M10.5364 19.905C8.59614 21.3942 7.32617 23.7074 7.32617 26.3379V30.0918C7.32617 30.5938 7.73238 31 8.23438 31H14.5918V24.8446L10.5364 19.905Z" fill="white"/>
<path d="M20.4636 19.905L16.4082 24.8446V31H22.7656C23.2676 31 23.6738 30.5938 23.6738 30.0918V26.3379C23.6738 23.7074 22.4039 21.3942 20.4636 19.905Z" fill="white"/>
<path d="M27.4707 8.77734C26.3062 10.0696 24.6377 10.8984 22.7656 10.8984C20.9002 10.8984 19.2365 10.0759 18.0724 8.79163C17.5371 9.17199 17.0343 9.59939 16.5989 10.1016C19.0788 10.6114 20.9492 12.8109 20.9492 15.4394C20.9492 16.2384 20.7669 16.9917 20.4567 17.6759C21.5031 18.2773 22.4354 19.0556 23.2004 19.9805H30.0918C30.5938 19.9805 31 19.5742 31 19.0722V15.4394C31 12.6867 29.5622 10.2593 27.4707 8.77734ZM26.3984 14.5312H24.582C24.08 14.5312 23.6738 14.125 23.6738 13.623C23.6738 13.121 24.08 12.7148 24.582 12.7148H26.3984C26.9004 12.7148 27.3067 13.121 27.3067 13.623C27.3067 14.125 26.9004 14.5312 26.3984 14.5312Z" fill="white"/>
<path d="M14.4011 10.1016C13.9657 9.59939 13.463 9.17205 12.9276 8.79163C11.7635 10.0759 10.0998 10.8984 8.23438 10.8984C6.36233 10.8984 4.69378 10.0696 3.52928 8.77734C1.43781 10.2593 0 12.6867 0 15.4394V19.0722C0 19.5742 0.406209 19.9805 0.908203 19.9805H7.79965C8.5646 19.0555 9.4969 18.2773 10.5435 17.6759C10.2334 16.9917 10.0508 16.2384 10.0508 15.4394C10.0508 12.8109 11.9212 10.6114 14.4011 10.1016ZM6.41797 14.5312H4.60156C4.09957 14.5312 3.69336 14.125 3.69336 13.623C3.69336 13.121 4.09957 12.7148 4.60156 12.7148H6.41797C6.91996 12.7148 7.32617 13.121 7.32617 13.623C7.32617 14.125 6.91996 14.5312 6.41797 14.5312Z" fill="white"/>
</g>
<defs>
<clipPath id="clip0_2_210">
<rect width="31" height="31" fill="white"/>
</clipPath>
</defs>
</svg>
