<svg viewBox="0 0 42 42" fill="none" xmlns="http://www.w3.org/2000/svg">
<path d="M10.7871 38.7188H4.9787C4.27832 38.7188 3.85578 38.3279 3.66628 38.0948C3.33914 37.6924 3.2124 37.1687 3.3188 36.6577C5.02251 28.4742 12.2445 22.4978 20.5819 22.3039C20.7207 22.3091 20.86 22.3125 21 22.3125C21.1412 22.3125 21.2817 22.309 21.4218 22.3037C23.4605 22.3502 25.4519 22.7336 27.3474 23.4454C28.1956 23.764 29.1415 23.3344 29.46 22.4862C29.7786 21.638 29.3491 20.6921 28.5008 20.3735C28.2292 20.2715 27.9557 20.176 27.6809 20.0854C30.3962 18.0486 32.1562 14.8041 32.1562 11.1562C32.1562 5.00473 27.1516 0 21 0C14.8484 0 9.84373 5.00473 9.84373 11.1562C9.84373 14.8074 11.6067 18.0544 14.3262 20.0909C11.8348 20.9111 9.4969 22.1865 7.45088 23.8695C3.69942 26.9552 1.09108 31.2593 0.106455 35.989C-0.202146 37.471 0.167486 38.9931 1.12061 40.165C2.06889 41.3312 3.47515 42 4.9787 42H10.7871C11.6932 42 12.4277 41.2655 12.4277 40.3594C12.4277 39.4533 11.6932 38.7188 10.7871 38.7188ZM13.125 11.1562C13.125 6.81393 16.6577 3.28125 21 3.28125C25.3423 3.28125 28.875 6.81393 28.875 11.1562C28.875 15.3699 25.5483 18.8211 21.3834 19.0218C21.2557 19.0195 21.1279 19.0175 21 19.0175C20.8717 19.0175 20.7435 19.0194 20.6153 19.0217C16.451 18.8204 13.125 15.3695 13.125 11.1562Z" fill="black"/>
<path d="M40.7438 28.2685C40.0415 26.6976 38.4596 25.6798 36.7098 25.6758H31.5933C31.5896 25.6758 31.5862 25.6758 31.5824 25.6758C29.7367 25.6758 28.1264 26.7635 27.4785 28.449C27.3923 28.6733 27.2869 28.9558 27.1769 29.2852H16.4352C15.9916 29.2852 15.567 29.4647 15.258 29.7829L12.4398 32.6858C11.819 33.3252 11.8222 34.3431 12.4467 34.9786L15.3178 37.8999C15.6263 38.2138 16.0479 38.3905 16.4879 38.3905H21.82C22.7261 38.3905 23.4606 37.656 23.4606 36.7499C23.4606 35.8438 22.7261 35.1093 21.82 35.1093H17.1758L15.9103 33.8216L17.129 32.5664H28.4076C29.1634 32.5664 29.8214 32.05 30.0011 31.3159C30.1338 30.7739 30.3004 30.2529 30.5412 29.6264C30.7 29.2133 31.0988 28.957 31.5864 28.957C31.5874 28.957 31.5885 28.957 31.5896 28.957H36.7059C37.1699 28.9581 37.5692 29.2075 37.7481 29.6077C38.1886 30.5931 38.7145 32.1185 38.7184 33.7901C38.7223 35.4742 38.197 37.0346 37.7554 38.0471C37.5774 38.4554 37.1747 38.7188 36.7251 38.7188C36.7242 38.7188 36.7233 38.7188 36.7224 38.7188H31.5442C31.0903 38.7177 30.6651 38.4257 30.4863 37.9921C30.2944 37.5269 30.1282 36.9958 29.978 36.3681C29.7671 35.487 28.8815 34.9436 28.0006 35.1544C27.1193 35.3653 26.576 36.2507 26.7869 37.1319C26.9773 37.9275 27.1952 38.6181 27.4531 39.2432C28.142 40.9137 29.7449 41.9957 31.5404 41.9999H36.7186C36.7222 41.9999 36.7255 41.9999 36.729 41.9999C38.4804 41.9998 40.0633 40.9639 40.7633 39.3584C41.3303 38.0582 42.005 36.0353 41.9996 33.7824C41.9944 31.5356 41.3138 29.5438 40.7438 28.2685Z" fill="black"/>
<path d="M35.3552 35.4375C36.2613 35.4375 36.9958 34.703 36.9958 33.7969C36.9958 32.8908 36.2613 32.1562 35.3552 32.1562C34.4491 32.1562 33.7146 32.8908 33.7146 33.7969C33.7146 34.703 34.4491 35.4375 35.3552 35.4375Z" fill="black"/>
</svg>
