<svg width="50" height="50" viewBox="0 0 50 50" fill="none" xmlns="http://www.w3.org/2000/svg">
<path d="M31.2891 0C28.8049 0.000203963 26.3766 0.737019 24.3112 2.11728C22.2457 3.49753 20.636 5.45925 19.6854 7.75436C18.7349 10.0495 18.4862 12.5749 18.9709 15.0113C19.4556 17.4478 20.6518 19.6858 22.4084 21.4423C24.165 23.1989 26.403 24.3952 28.8394 24.8798C31.2758 25.3645 33.8013 25.1159 36.0964 24.1653C38.3915 23.2148 40.3532 21.605 41.7335 19.5396C43.1137 17.4742 43.8505 15.0458 43.8507 12.5617C43.847 9.23126 42.5223 6.03834 40.1674 3.68339C37.8124 1.32844 34.6195 0.00377271 31.2891 0Z" fill="#FF0049"/>
<path d="M49.2711 39.6687V40.677C49.2703 42.956 48.3646 45.1414 46.7531 46.7528C45.1417 48.3643 42.9563 49.27 40.6773 49.2708H21.9087C19.6297 49.27 17.4444 48.3643 15.8329 46.7528C14.2214 45.1414 13.3158 42.956 13.315 40.677V39.6687C13.311 36.551 14.1207 33.4863 15.664 30.7774C17.2073 28.0685 19.4307 25.8093 22.1146 24.2229C24.7264 26.2828 27.9549 27.4047 31.2813 27.4083C34.621 27.4191 37.864 26.2869 40.4714 24.2C43.1542 25.7933 45.3761 28.0573 46.919 30.7695C48.4618 33.4816 49.2724 36.5485 49.2711 39.6687Z" fill="#FF0049"/>
<path d="M8.59375 26.3541C8.13795 26.354 7.70085 26.1729 7.37854 25.8506C7.05624 25.5283 6.87512 25.0912 6.875 24.6354V10.8854C6.875 10.4295 7.05608 9.99236 7.37841 9.67004C7.70074 9.34771 8.13791 9.16663 8.59375 9.16663C9.04959 9.16663 9.48676 9.34771 9.80909 9.67004C10.1314 9.99236 10.3125 10.4295 10.3125 10.8854V24.6354C10.3124 25.0912 10.1313 25.5283 9.80896 25.8506C9.48665 26.1729 9.04955 26.354 8.59375 26.3541Z" fill="#FF0049"/>
<path d="M15.4688 19.4791H1.71875C1.26291 19.4791 0.825738 19.298 0.50341 18.9757C0.181082 18.6534 0 18.2162 0 17.7604C0 17.3045 0.181082 16.8674 0.50341 16.545C0.825738 16.2227 1.26291 16.0416 1.71875 16.0416H15.4688C15.9246 16.0416 16.3618 16.2227 16.6841 16.545C17.0064 16.8674 17.1875 17.3045 17.1875 17.7604C17.1875 18.2162 17.0064 18.6534 16.6841 18.9757C16.3618 19.298 15.9246 19.4791 15.4688 19.4791Z" fill="#FF0049"/>
</svg>
