<svg width="14" height="14" viewBox="0 0 14 14" fill="none" xmlns="http://www.w3.org/2000/svg">
<g clip-path="url(#clip0_29_117)">
<path d="M6.47534 3.89962C9.96393 3.89962 12.792 3.16712 12.792 2.26353C12.792 1.35994 9.96393 0.627441 6.47534 0.627441C2.98675 0.627441 0.158691 1.35994 0.158691 2.26353C0.158691 3.16712 2.98675 3.89962 6.47534 3.89962Z" fill="#FF0049"/>
<path d="M1.99955 5.63954C3.26173 6.0104 4.85134 6.22891 6.47562 6.21466C10.0599 6.18323 11.7353 5.34668 11.7354 5.34662C12.4171 5.05801 12.8056 4.73814 12.8056 4.4469V3.11988C12.8056 3.10421 12.8039 3.08887 12.8016 3.07373C12.58 3.44232 12.0319 3.71856 11.5268 3.90525V4.74668C11.5268 4.86259 11.4328 4.95656 11.3169 4.95656C11.2009 4.95656 11.107 4.86259 11.107 4.74668V4.04518C10.9803 4.08324 10.8657 4.11421 10.7712 4.1382V5.15946C10.7712 5.31402 10.6459 5.43931 10.4913 5.43931C10.3368 5.43931 10.2115 5.31402 10.2115 5.15946V4.25901C9.16316 4.45695 7.87224 4.57384 6.47562 4.57384C3.15659 4.57384 0.43269 3.9144 0.149566 3.07373C0.147159 3.08887 0.145508 3.10423 0.145508 3.11988V4.47584C0.145536 4.86335 0.838642 5.29835 1.99955 5.63954Z" fill="#FF0049"/>
<path d="M13.9959 6.68606C13.7743 7.05465 13.2262 7.3309 12.7211 7.51758V8.35898C12.7211 8.47492 12.6271 8.56887 12.5112 8.56887C12.3952 8.56887 12.3013 8.47492 12.3013 8.35898V7.65751C12.1747 7.69554 12.06 7.72655 11.9655 7.75053V8.77176C11.9655 8.92632 11.8402 9.05161 11.6856 9.05161C11.5311 9.05161 11.4058 8.92632 11.4058 8.77176V7.87131C10.3575 8.06925 9.06655 8.18615 7.66992 8.18615C4.3509 8.18615 1.627 7.52671 1.3439 6.68604C1.34149 6.70118 1.33984 6.71654 1.33984 6.73218V8.08814C1.33984 8.47568 2.03298 8.91071 3.19385 9.25187C4.45604 9.62273 6.04564 9.84121 7.66992 9.82699C11.2542 9.79557 12.9296 8.95898 12.9297 8.95893C13.6114 8.67032 13.9999 8.35045 13.9999 8.05923V6.73221C14 6.71657 13.9983 6.7012 13.9959 6.68606Z" fill="#FF0049"/>
<path d="M6.33002 11.731C4.9334 11.731 3.64248 11.6141 2.59419 11.4162V12.3167C2.59419 12.4712 2.46884 12.5965 2.31434 12.5965C2.15977 12.5965 2.03449 12.4712 2.03449 12.3167V11.2954C1.93998 11.2714 1.8253 11.2405 1.69867 11.2024V11.9039C1.69867 12.0198 1.60472 12.1138 1.48878 12.1138C1.37284 12.1138 1.27889 12.0198 1.27889 11.9039V11.0625C0.773787 10.8758 0.225672 10.5995 0.00408582 10.231C0.0016791 10.2461 0 10.2614 0 10.277V11.6041C0 11.8953 0.388517 12.2152 1.07026 12.5038C1.07032 12.5038 2.74575 13.3404 6.33002 13.3718C7.95433 13.3861 9.54394 13.1676 10.8061 12.7967C11.967 12.4556 12.6601 12.0206 12.6601 11.633V10.2771C12.6601 10.2614 12.6585 10.2461 12.656 10.231C12.3729 11.0715 9.64902 11.731 6.33002 11.731Z" fill="#FF0049"/>
<path d="M6.68388 6.83315C5.06019 6.87678 3.46996 6.62888 2.20787 6.25803C1.89228 6.16528 1.61153 6.06555 1.36963 5.96178C1.4936 6.83709 4.27182 7.53686 7.68152 7.53686C11.1701 7.53686 13.9982 6.80435 13.9982 5.90074C13.9982 5.57796 13.6371 5.27701 13.014 5.02344V5.06536C13.014 5.37126 12.5856 5.70876 11.8389 6.00843C11.8389 6.00843 10.1958 6.73884 6.68388 6.83315Z" fill="#FF0049"/>
<path d="M6.34646 11.0842C9.75616 11.0842 12.5344 10.3844 12.6583 9.50911C12.4164 9.61288 12.1357 9.71259 11.8202 9.80536C10.5579 10.1762 8.96782 10.4241 7.3441 10.3805C3.83214 10.2861 2.18917 9.55576 2.18917 9.55576C1.44236 9.2561 1.01402 8.91857 1.01402 8.61272V8.5708C0.39096 8.82437 0.0297852 9.12527 0.0297852 9.44813C0.0297572 10.3517 2.85781 11.0842 6.34646 11.0842Z" fill="#FF0049"/>
</g>
<defs>
<clipPath id="clip0_29_117">
<rect width="14" height="14" fill="white"/>
</clipPath>
</defs>
</svg>
