<svg width="13" height="13" viewBox="0 0 13 13" fill="none" xmlns="http://www.w3.org/2000/svg">
<path d="M5.01042 0H0.947917C0.425208 0 0 0.425208 0 0.947917V3.38542C0 3.90813 0.425208 4.33333 0.947917 4.33333H5.01042C5.53313 4.33333 5.95833 3.90813 5.95833 3.38542V0.947917C5.95833 0.425208 5.53313 0 5.01042 0Z" fill="#FF0049"/>
<path d="M5.01042 5.4165H0.947917C0.425208 5.4165 0 5.84171 0 6.36442V12.0519C0 12.5746 0.425208 12.9998 0.947917 12.9998H5.01042C5.53313 12.9998 5.95833 12.5746 5.95833 12.0519V6.36442C5.95833 5.84171 5.53313 5.4165 5.01042 5.4165Z" fill="#FF0049"/>
<path d="M12.0519 8.6665H7.98942C7.46671 8.6665 7.0415 9.09171 7.0415 9.61442V12.0519C7.0415 12.5746 7.46671 12.9998 7.98942 12.9998H12.0519C12.5746 12.9998 12.9998 12.5746 12.9998 12.0519V9.61442C12.9998 9.09171 12.5746 8.6665 12.0519 8.6665Z" fill="#FF0049"/>
<path d="M12.0519 0H7.98942C7.46671 0 7.0415 0.425208 7.0415 0.947917V6.63542C7.0415 7.15813 7.46671 7.58333 7.98942 7.58333H12.0519C12.5746 7.58333 12.9998 7.15813 12.9998 6.63542V0.947917C12.9998 0.425208 12.5746 0 12.0519 0Z" fill="#FF0049"/>
</svg>
