<svg width="51" height="51" viewBox="0 0 51 51" fill="none" xmlns="http://www.w3.org/2000/svg">
<path d="M16 34.3913L17.7143 31.0913C18.4286 29.6565 19.8571 28.6522 21.5714 28.6522H26.5714H26.8571C29.4286 25.2087 33.5714 22.913 38.2857 22.913C40 22.913 41.5714 23.2 43.1429 23.7739C42.5714 22.913 41.8571 22.0522 41.1429 21.4783H42.5714C43.4286 21.4783 44 20.9043 44 20.0435C44 19.1826 43.4286 18.6087 42.5714 18.6087H38.5714L36.8571 14.3043C35.7143 11.7217 33.1429 10 30.2857 10H17.7143C14.8571 10 12.2857 11.7217 11.1429 14.3043L9.28571 18.6087H5.42857C4.57143 18.6087 4 19.1826 4 20.0435C4 20.9043 4.57143 21.4783 5.42857 21.4783H6.85714C5.14286 22.7696 4 24.9217 4 27.2174V32.9565C4 34.2478 4.57143 35.3957 5.42857 36.113V38.6957C5.42857 41.1348 7.28571 43 9.71429 43H12.5714C15 43 16.8571 41.1348 16.8571 38.6957V37.2609H24C24 36.2565 24.1429 35.2522 24.2857 34.3913H16ZM14 30.087H9.71429C8.85714 30.087 8.28571 29.513 8.28571 28.6522C8.28571 27.7913 8.85714 27.2174 9.71429 27.2174H14C14.8571 27.2174 15.4286 27.7913 15.4286 28.6522C15.4286 29.513 14.8571 30.087 14 30.087ZM11.8571 20.0435L13.8571 15.4522C14.5714 13.8739 16 12.8696 17.7143 12.8696H30.1429C31.8571 12.8696 33.4286 13.8739 34.1429 15.4522L36.1429 20.0435H11.8571Z" fill="#FF0049"/>
<path d="M44.7614 28.3272C44.2347 27.9108 43.6678 27.5479 43.0691 27.244C41.5055 26.424 39.7659 25.9971 38.0004 26C35.8991 25.9992 33.8416 26.6004 32.0714 27.7327C30.3012 28.865 28.8924 30.4808 28.0119 32.3889C27.1314 34.2969 26.816 36.4174 27.1031 38.4991C27.3901 40.5809 28.2676 42.5368 29.6316 44.1354C30.0996 44.6852 30.6212 45.1869 31.1886 45.6332C32.3243 46.5302 33.6258 47.1942 35.0186 47.587C36.4114 47.9799 37.868 48.094 39.305 47.9227C40.7419 47.7515 42.1309 47.2982 43.3924 46.589C44.6538 45.8798 45.7629 44.9286 46.656 43.7898C47.5491 42.651 48.2087 41.3472 48.5969 39.953C48.9851 38.5588 49.0944 37.1017 48.9184 35.6652C48.7423 34.2287 48.2846 32.841 47.5712 31.5818C46.8579 30.3226 45.903 29.2166 44.7614 28.3272ZM42.2313 37.8477H38.8466V41.2327C38.8466 41.4571 38.7574 41.6724 38.5988 41.8311C38.4401 41.9898 38.2248 42.079 38.0004 42.079C37.776 42.079 37.5608 41.9898 37.4021 41.8311C37.2434 41.6724 37.1542 41.4571 37.1542 41.2327V37.8477H33.7695C33.5451 37.8477 33.3298 37.7585 33.1711 37.5998C33.0125 37.4411 32.9233 37.2258 32.9233 37.0014C32.9233 36.777 33.0125 36.5617 33.1711 36.403C33.3298 36.2443 33.5451 36.1551 33.7695 36.1551H37.1542V32.7701C37.1542 32.5457 37.2434 32.3304 37.4021 32.1717C37.5608 32.013 37.776 31.9238 38.0004 31.9238C38.2248 31.9238 38.4401 32.013 38.5988 32.1717C38.7574 32.3304 38.8466 32.5457 38.8466 32.7701V36.1551H42.2313C42.4558 36.1551 42.671 36.2443 42.8297 36.403C42.9884 36.5617 43.0775 36.777 43.0775 37.0014C43.0775 37.2258 42.9884 37.4411 42.8297 37.5998C42.671 37.7585 42.4558 37.8477 42.2313 37.8477Z" fill="black"/>
</svg>
