<svg width="42" height="42" viewBox="0 0 42 42" fill="none" xmlns="http://www.w3.org/2000/svg">
<g clip-path="url(#clip0_29_509)">
<path d="M10.3137 25.9368H0.301098V17.8877H10.3137V25.9368ZM5.7716 20.3674C5.04185 20.3674 4.45035 21.0596 4.45035 21.9109C4.45035 22.7649 5.04185 23.4553 5.7716 23.4553C6.50135 23.4553 7.09285 22.7649 7.09285 21.9109C7.09197 21.0596 6.50135 20.3674 5.7716 20.3674Z" fill="black"/>
<path d="M11.0566 16.4021H0.301098V10.4381C0.301098 8.98998 1.32135 7.81135 2.5761 7.81135H4.80822L5.71735 2.7311C5.90197 1.69423 6.45235 0.832353 7.22497 0.361603C7.8296 -0.0058965 8.52522 -0.0968965 9.1806 0.106979L33.643 7.68798C34.2826 7.88485 34.8487 8.35648 35.2355 9.0136L35.2162 9.02585C35.4428 9.43448 35.5793 9.91748 35.5793 10.4381V22.759C34.588 22.472 33.5406 22.3119 32.4556 22.3119C26.391 22.3119 21.4577 27.1209 21.4577 33.0324C21.4577 33.9879 21.5881 34.925 21.841 35.835H2.57697C1.32222 35.835 0.301973 34.6555 0.301973 33.2082V27.4227H11.0566C11.467 27.4227 11.7995 27.0902 11.7995 26.6799V17.145C11.7986 16.7337 11.4661 16.4021 11.0566 16.4021ZM29.0221 7.81135L8.73959 1.52535C8.49022 1.44835 8.2391 1.48335 7.9941 1.63123C7.59247 1.87623 7.28622 2.3846 7.17772 2.9936L6.31497 7.81135H29.0221Z" fill="#FF0049"/>
<g clip-path="url(#clip1_29_509)">
<path d="M33 24C28.0289 24 24 28.0289 24 33C24 37.9711 28.0289 42 33 42C37.9711 42 42 37.9711 42 33C42 28.0289 37.9711 24 33 24ZM37.7461 33C37.7461 33.6504 37.2188 34.1777 36.5684 34.1777H29.4316C28.7812 34.1777 28.2539 33.6504 28.2539 33C28.2539 32.3496 28.7812 31.8223 29.4316 31.8223H36.5684C37.2188 31.8223 37.7461 32.3496 37.7461 33Z" fill="#FA1228"/>
</g>
</g>
<defs>
<clipPath id="clip0_29_509">
<rect width="42" height="42" fill="white" transform="matrix(-1 0 0 1 42 0)"/>
</clipPath>
<clipPath id="clip1_29_509">
<rect width="18" height="18" fill="white" transform="translate(24 24)"/>
</clipPath>
</defs>
</svg>
