<svg width="53" height="39" viewBox="0 0 53 39" fill="none" xmlns="http://www.w3.org/2000/svg">
<path d="M11.0801 10.8088H15.0064C14.7645 10.8088 14.5368 10.6809 14.3876 10.4629C14.2384 10.245 14.1866 9.96033 14.2447 9.69011L14.7332 7.45091C14.9955 6.24573 15.9362 5.40441 17.0183 5.40441H22.0737C23.3726 5.40441 24.4295 6.61677 24.4295 8.10662V9.90806C24.4295 10.4053 24.0777 10.8088 23.6442 10.8088H28.3558C27.9223 10.8088 27.5705 10.4053 27.5705 9.90806V8.10662C27.5705 6.61677 28.6274 5.40441 29.9262 5.40441H34.9817C36.0638 5.40441 37.0045 6.24573 37.2668 7.45091L37.7553 9.69011C37.815 9.95856 37.7615 10.245 37.6124 10.4629C37.4631 10.6809 37.2355 10.8088 36.9936 10.8088H40.9199C41.3533 10.8088 41.7051 10.4053 41.7051 9.90806V4.50365C41.7051 2.02125 39.943 0 37.7789 0H14.2212C12.057 0 10.2949 2.02125 10.2949 4.50365V9.90806C10.2949 10.4053 10.6467 10.8088 11.0801 10.8088Z" fill="#FF0049"/>
<path d="M40.9198 12.6104H11.0801C8.91592 12.6104 7.15381 14.6316 7.15381 17.114V29.7243C7.15381 30.2215 7.50563 30.625 7.93909 30.625C8.37255 30.625 8.72437 30.2215 8.72437 29.7243V27.0221H43.2756H43.6226C42.6289 27.0221 43.8584 27.0221 44.2918 27.0221C44.7253 27.0221 44.0292 27.0221 44.8461 27.0221V17.114C44.846 14.6316 43.0839 12.6104 40.9198 12.6104ZM43.2756 25.2206H8.72429V23.4192H43.2755L43.2756 25.2206Z" fill="#FF0049"/>
<path d="M40 15C37.8244 15 35.6977 15.6451 33.8887 16.8538C32.0798 18.0625 30.6699 19.7805 29.8373 21.7905C29.0048 23.8005 28.7869 26.0122 29.2114 28.146C29.6358 30.2798 30.6835 32.2398 32.2218 33.7782C33.7602 35.3165 35.7202 36.3642 37.854 36.7886C39.9878 37.2131 42.1995 36.9952 44.2095 36.1627C46.2195 35.3301 47.9375 33.9202 49.1462 32.1113C50.3549 30.3023 51 28.1756 51 26C50.9967 23.0836 49.8367 20.2876 47.7745 18.2255C45.7124 16.1633 42.9164 15.0033 40 15ZM44.6129 26.7097H40.7097V30.6129C40.7097 30.8011 40.6349 30.9816 40.5018 31.1147C40.3687 31.2478 40.1882 31.3226 40 31.3226C39.8118 31.3226 39.6313 31.2478 39.4982 31.1147C39.3651 30.9816 39.2903 30.8011 39.2903 30.6129V26.7097H35.3871C35.1989 26.7097 35.0184 26.6349 34.8853 26.5018C34.7522 26.3687 34.6774 26.1882 34.6774 26C34.6774 25.8118 34.7522 25.6313 34.8853 25.4982C35.0184 25.3651 35.1989 25.2903 35.3871 25.2903H39.2903V21.3871C39.2903 21.1989 39.3651 21.0184 39.4982 20.8853C39.6313 20.7522 39.8118 20.6774 40 20.6774C40.1882 20.6774 40.3687 20.7522 40.5018 20.8853C40.6349 21.0184 40.7097 21.1989 40.7097 21.3871V25.2903H44.6129C44.8011 25.2903 44.9816 25.3651 45.1147 25.4982C45.2478 25.6313 45.3226 25.8118 45.3226 26C45.3226 26.1882 45.2478 26.3687 45.1147 26.5018C44.9816 26.6349 44.8011 26.7097 44.6129 26.7097Z" fill="#050505"/>
</svg>
