<svg width="15" height="13" viewBox="0 0 15 13" fill="none" xmlns="http://www.w3.org/2000/svg">
<g clip-path="url(#clip0_29_108)">
<path d="M14.5 2.57747H14.497V1.9773V1.74677V1.73333H13.449V1.7082C13.449 0.764833 12.5665 0 11.4785 0H3.5225C2.4335 0 1.552 0.764833 1.552 1.7082V1.74027H0.785H0.5195H0.504V2.5779H0.5C0.2235 2.5779 0 2.77203 0 3.01123V4.7489C0 4.9881 0.2235 5.18223 0.5 5.18223H0.538V5.6134V5.8435V5.85693H1.5515V6.13903V9.5056C1.332 9.67633 1.1945 9.92333 1.1945 10.1994V10.858C1.1945 11.3728 1.675 11.7888 2.2685 11.7888H2.4015V12.7257C2.4015 12.8774 2.544 13 2.718 13H4.173C4.347 13 4.4885 12.8774 4.4885 12.7257V11.7888H10.512V12.7257C10.512 12.8774 10.6535 13 10.8285 13H12.2825C12.4575 13 12.599 12.8774 12.599 12.7257V11.7888H12.732C13.326 11.7888 13.807 11.3724 13.807 10.858V10.1994C13.807 9.92333 13.6685 9.67633 13.4495 9.50517V5.85H14.25H14.5155H14.531V5.1766C14.792 5.16187 15 4.97857 15 4.74847V3.0108C15 2.7716 14.7765 2.57747 14.5 2.57747ZM0.8195 5.61297V5.1662C1.051 5.1285 1.2295 4.96037 1.2295 4.74847V3.0108C1.2295 2.7885 1.034 2.61213 0.785 2.587V1.9838H1.5515V2.57747V5.25893V5.61297H0.8195ZM5.41 0.8905H9.5905C9.8805 0.8905 10.116 1.0946 10.116 1.34593C10.116 1.59727 9.8805 1.80137 9.5905 1.80137H5.41C5.12 1.80137 4.8845 1.5977 4.8845 1.34593C4.8845 1.09417 5.12 0.8905 5.41 0.8905ZM4.6465 8.7945C4.6465 9.0415 4.414 9.243 4.129 9.243H3.2735C2.9885 9.243 2.756 9.0415 2.756 8.7945V8.2953C2.756 8.04743 2.9885 7.84593 3.2735 7.84593H4.129C4.414 7.84593 4.6465 8.04743 4.6465 8.2953V8.7945ZM6.963 6.91903H2.7705V2.71657H6.963V6.91903ZM8.038 2.71657H12.2305V6.91903H8.038V2.71657ZM12.244 8.7945C12.244 9.0415 12.0115 9.243 11.7265 9.243H10.872C10.586 9.243 10.3535 9.0415 10.3535 8.7945V8.2953C10.3535 8.04743 10.586 7.84593 10.872 7.84593H11.7265C12.0115 7.84593 12.244 8.04743 12.244 8.2953V8.7945ZM13.449 5.60647V5.25937V2.57747V1.9773H14.2155V2.587C13.9665 2.6117 13.77 2.78807 13.77 3.0108V4.74847C13.77 4.9816 13.984 5.16837 14.2495 5.17833V5.60603L13.449 5.60647Z" fill="#FF0049"/>
</g>
<defs>
<clipPath id="clip0_29_108">
<rect width="15" height="13" fill="white"/>
</clipPath>
</defs>
</svg>
