<svg width="12" height="13" viewBox="0 0 12 13" fill="none" xmlns="http://www.w3.org/2000/svg">
<path d="M8.77817 3.16113H6.89011H4.62939H2.79492V3.66077H8.77817V3.16113Z" fill="#FF0049"/>
<path d="M8.87669 3.75255H2.69629V3.06982H8.87669V3.75255ZM2.89346 3.56946H8.67954V3.25292H2.89346V3.56946Z" fill="#FF0049"/>
<path d="M6.52882 2.77309L6.9133 0.335516C6.18416 0.0105572 5.33559 0.0105572 4.60645 0.335516L4.99093 2.77237L6.52882 2.77309Z" fill="#FF0049"/>
<path d="M6.61463 2.86447H4.90578L4.49805 0.280807L4.56586 0.252423C5.32064 -0.0841411 6.19919 -0.0841411 6.95394 0.252423L7.02156 0.280807L6.61463 2.86447ZM5.07674 2.68141H6.44431L6.80513 0.391022C6.14041 0.114004 5.37986 0.114004 4.71515 0.391022L5.07674 2.68141Z" fill="#FF0049"/>
<path d="M9.27429 9.9917H2.29655C2.17226 9.9926 2.07177 10.0859 2.0708 10.2013V12.9086H9.50004V10.2013C9.49982 10.0857 9.39886 9.99191 9.27429 9.9917ZM3.32181 11.1061H3.10177C2.98629 11.1061 2.89268 11.0192 2.89268 10.912C2.89268 10.8047 2.98629 10.7178 3.10177 10.7178H3.32181C3.43729 10.7178 3.5309 10.8047 3.5309 10.912C3.5309 11.0192 3.43729 11.1061 3.32181 11.1061ZM8.47182 11.1061H8.251C8.13553 11.1061 8.04191 11.0192 8.04191 10.912C8.04191 10.8047 8.13553 10.7178 8.251 10.7178H8.47065C8.58613 10.7178 8.67975 10.8047 8.67975 10.912C8.67975 11.0192 8.58613 11.1061 8.47065 11.1061H8.47182Z" fill="#FF0049"/>
<path d="M9.59888 12.9999H1.97266V10.2011C1.97288 10.0349 2.11784 9.90021 2.29681 9.8999H9.27436C9.45347 9.90001 9.59869 10.0347 9.59891 10.2011V12.9999H9.59888ZM2.16983 12.8168H9.40173V10.2011C9.40162 10.1358 9.34462 10.083 9.27436 10.083H2.29681C2.22689 10.0838 2.17039 10.1362 2.16944 10.2011L2.16983 12.8168ZM8.47147 11.1981H8.25124C8.08131 11.1981 7.94355 11.0702 7.94355 10.9125C7.94355 10.7547 8.08131 10.6268 8.25124 10.6268H8.4707C8.64063 10.6268 8.77836 10.7547 8.77836 10.9125C8.77836 11.0702 8.6406 11.1981 8.4707 11.1981H8.47147ZM8.25124 10.8091C8.19022 10.8091 8.14072 10.855 8.14072 10.9117C8.14072 10.9684 8.19019 11.0143 8.25124 11.0143H8.4707C8.53172 11.0143 8.58121 10.9684 8.58121 10.9117C8.58121 10.855 8.53175 10.8091 8.4707 10.8091H8.25124ZM3.32207 11.1974H3.10203C2.9321 11.1974 2.79436 11.0695 2.79436 10.9117C2.79436 10.7539 2.93212 10.626 3.10203 10.626H3.32207C3.492 10.626 3.62974 10.7539 3.62974 10.9117C3.62974 11.0695 3.492 11.1974 3.32207 11.1974ZM3.10242 10.8091C3.0414 10.8091 2.9919 10.855 2.9919 10.9117C2.9919 10.9684 3.04137 11.0143 3.10242 11.0143H3.32207C3.38309 11.0143 3.43259 10.9684 3.43259 10.9117C3.43259 10.855 3.38312 10.8091 3.32207 10.8091H3.10242Z" fill="#FF0049"/>
<path d="M4.24749 0.740234C3.47367 1.16679 2.99574 1.93745 2.98682 2.773H4.56771L4.24749 0.740234Z" fill="#FF0049"/>
<path d="M4.68253 2.86447H2.88672L2.88888 2.77091C2.90107 1.90393 3.39674 1.10489 4.19828 0.660143L4.32406 0.592773L4.68253 2.86447ZM3.09021 2.68141H4.45443L4.17189 0.891587C3.5312 1.29954 3.13142 1.96106 3.09021 2.68141Z" fill="#FF0049"/>
<path d="M8.88101 8.34238L8.32715 8.17139V9.60419H8.88101V8.34238Z" fill="#FF0049"/>
<path d="M8.97953 9.69537H8.22852V8.04395L8.97953 8.27629V9.69537ZM8.42569 9.51228H8.78235V8.40792L8.42569 8.29806V9.51228Z" fill="#FF0049"/>
<path d="M3.66357 8.12856V9.60402H7.90877V8.12817C7.82006 8.09454 7.73501 8.05308 7.65481 8.00439C7.05444 8.5573 6.43395 8.84384 5.80795 8.8495H5.78825C5.16009 8.8495 4.52638 8.56664 3.90254 8.01518C3.82675 8.05964 3.74677 8.09757 3.66357 8.12856Z" fill="#FF0049"/>
<path d="M8.00734 9.6954H3.56494V8.06595L3.62685 8.04289C3.70461 8.01407 3.77938 7.97872 3.85024 7.93726L3.91531 7.89917L3.9709 7.94843C4.57856 8.48522 5.19018 8.75748 5.78877 8.75748C6.40294 8.752 7.00134 8.47663 7.58516 7.93891L7.64175 7.88672L7.7084 7.92717C7.78312 7.97262 7.86235 8.01129 7.94501 8.04269L8.00654 8.06595L8.00734 9.6954ZM3.76212 9.51231H7.81016V8.18826C7.76169 8.16765 7.71439 8.1448 7.66841 8.11978C7.06408 8.65897 6.43869 8.93524 5.80873 8.9409H5.78902C5.15651 8.9409 4.5179 8.66793 3.8899 8.12892C3.84869 8.15054 3.8061 8.17048 3.76234 8.18878L3.76212 9.51231Z" fill="#FF0049"/>
<path d="M7.27227 0.740234L6.95166 2.77246H8.53256C8.5235 1.93716 8.04573 1.16676 7.27227 0.740234Z" fill="#FF0049"/>
<path d="M8.63302 2.86447H6.8374L7.19564 0.594238L7.32143 0.661608C8.12272 1.10623 8.61836 1.90493 8.63083 2.77165L8.63302 2.86447ZM7.06553 2.68141H8.42952C8.38834 1.96106 7.98856 1.29953 7.34787 0.891585L7.06553 2.68141Z" fill="#FF0049"/>
<path d="M2.27337 8.61523L1.21774 8.9922C0.795232 9.5038 0.502531 10.0973 0.361445 10.7286C0.191345 11.4446 0.103911 12.1753 0.100586 12.9086H1.65347V10.202C1.65419 9.88105 1.92793 9.61798 2.27337 9.60627V8.61523Z" fill="#FF0049"/>
<path d="M1.75222 13.0001H0L0.00196758 12.9068C0.00540395 12.167 0.0938351 11.4297 0.265765 10.7074C0.410009 10.0628 0.709278 9.45683 1.14118 8.93476L1.15775 8.91646L2.3719 8.48291V9.69548L2.27707 9.69878C1.98417 9.70768 1.75175 9.93087 1.75202 10.203L1.75222 13.0001ZM0.201693 12.817H1.55504V10.2021C1.55479 9.86566 1.81734 9.57873 2.17495 9.52467V8.74858L1.27822 9.06878C0.874141 9.56592 0.593827 10.1401 0.457425 10.7499C0.295223 11.4288 0.209452 12.1216 0.201499 12.817H0.201693Z" fill="#FF0049"/>
<path d="M11.4677 12.9084C11.3865 11.1794 11.0185 9.89538 10.3452 8.99042L9.29883 8.61621V9.60743C9.64427 9.61914 9.91798 9.88221 9.91873 10.2032V12.9084L11.4677 12.9084Z" fill="#FF0049"/>
<path d="M11.5705 12.9998H9.82027V10.2017C9.82066 9.92981 9.58865 9.70668 9.296 9.69749L9.20117 9.6942V8.48145L10.4098 8.91371L10.4272 8.93697C11.1119 9.85789 11.4848 11.1554 11.567 12.9035L11.5705 12.9998ZM10.0174 12.8167H11.3643C11.2758 11.1664 10.921 9.93789 10.2818 9.06348L9.39813 8.74747V9.52266C9.75584 9.57657 10.0186 9.86357 10.0182 10.2001L10.0174 12.8167Z" fill="#FF0049"/>
<path d="M8.41277 4.04932H3.15967V4.61485C3.15967 5.96186 4.33563 7.0538 5.78622 7.0538C7.23681 7.0538 8.41277 5.96183 8.41277 4.61485V4.04932Z" fill="#FF0049"/>
<path d="M5.78647 7.14501C4.28203 7.1436 3.06275 6.01159 3.06104 4.61462V3.95752H8.51131V4.61462C8.50957 6.01136 7.29065 7.14329 5.78647 7.14501ZM3.25818 4.14061V4.61462C3.25818 5.91106 4.39 6.96202 5.78616 6.96202C7.18233 6.96202 8.31414 5.91106 8.31414 4.61462V4.14061H3.25818Z" fill="#FF0049"/>
<path d="M3.24524 8.17139L2.69141 8.34238V9.60419H3.24524V8.17139Z" fill="#FF0049"/>
<path d="M3.34388 9.69566H2.59229V8.27657L3.3433 8.04443L3.34388 9.69566ZM2.79004 9.51256H3.1467V8.29816L2.79004 8.40802V9.51256Z" fill="#FF0049"/>
<path d="M7.34409 7.74377C7.203 7.57769 7.1113 7.38016 7.0781 7.1709C6.26033 7.53248 5.31062 7.53248 4.49284 7.1709C4.45967 7.38613 4.36428 7.58899 4.2168 7.75787C4.75783 8.22766 5.29748 8.46623 5.80301 8.46147C6.30855 8.45671 6.82966 8.21338 7.34409 7.74377Z" fill="#FF0049"/>
<path d="M5.78801 8.55267C5.25784 8.55267 4.70675 8.30771 4.15014 7.82437L4.08252 7.76577L4.14166 7.69948C4.27773 7.54295 4.36574 7.35523 4.39639 7.1561L4.4161 7.03564L4.5344 7.08765C5.32596 7.43598 6.24411 7.43598 7.03567 7.08765L7.15397 7.03585L7.17487 7.15577C7.20549 7.34962 7.29018 7.53266 7.42054 7.68672L7.47633 7.75136L7.41264 7.80939C6.87673 8.29804 6.33551 8.54832 5.80356 8.55308L5.78801 8.55267ZM4.35045 7.74709C4.84631 8.16049 5.32959 8.36958 5.78818 8.36958H5.80278C6.26218 8.36554 6.73637 8.15151 7.21391 7.73373C7.1167 7.60262 7.04645 7.45595 7.00668 7.30111C6.22701 7.60952 5.34564 7.60952 4.56594 7.30111C4.52545 7.46107 4.45229 7.61235 4.35045 7.74673V7.74709Z" fill="#FF0049"/>
</svg>
