<svg width="13" height="13" viewBox="0 0 13 13" fill="none" xmlns="http://www.w3.org/2000/svg">
<g clip-path="url(#clip0_29_141)">
<path d="M11.5809 1.57233H10.9476V1.07712C10.9476 0.860901 10.7723 0.685547 10.5561 0.685547C10.3398 0.685547 10.1645 0.860901 10.1645 1.07712V1.57233H2.83552V1.07712C2.83552 0.860901 2.66016 0.685547 2.44395 0.685547C2.22773 0.685547 2.05238 0.860901 2.05238 1.07712V1.57233H1.4191C0.63665 1.57233 0 2.20889 0 2.99133V10.9066C0 11.689 0.63665 12.3257 1.4191 12.3257H11.5809C12.3633 12.3257 13 11.689 13 10.9066V2.99133C13 2.20889 12.3633 1.57233 11.5809 1.57233ZM4.8867 4.99551V6.65582H3.22649V4.99551H4.8867ZM7.33015 4.99551V6.65582H5.66985V4.99551H7.33015ZM9.77351 4.99551V6.65582H8.1133V4.99551H9.77351ZM12.2169 4.99551V6.65582H10.5566V4.99551H12.2169ZM2.44335 6.65582H0.783142V4.99551H2.44335V6.65582ZM0.783142 7.43896H2.44335V9.09917H0.783142V7.43896ZM3.22649 7.43896H4.8867V9.09917H3.22649V7.43896ZM5.66985 7.43896H7.33015V9.09917H5.66985V7.43896ZM8.1133 7.43896H9.77351V9.09917H8.1133V7.43896ZM10.5566 7.43896H12.2169V9.09917H10.5566V7.43896ZM0.783142 2.99133C0.783142 2.64072 1.06839 2.35538 1.4191 2.35538H2.05238V2.85059C2.05238 3.06681 2.22773 3.24216 2.44395 3.24216C2.66016 3.24216 2.83552 3.06681 2.83552 2.85059V2.35538H10.1645V2.85059C10.1645 3.06681 10.3398 3.24216 10.5561 3.24216C10.7724 3.24216 10.9476 3.06681 10.9476 2.85059V2.35538H11.5809C11.9316 2.35538 12.2169 2.64072 12.2169 2.99133V4.21236H0.783142V2.99133ZM0.783142 10.9066V9.88231H2.44335V11.5425H1.4191C1.06839 11.5425 0.783142 11.2572 0.783142 10.9066ZM3.22649 9.88231H4.8867V11.5425H3.22649V9.88231ZM5.66985 9.88231H7.33015V11.5425H5.66985V9.88231ZM8.1133 9.88231H9.77351V11.5425H8.1133V9.88231ZM12.2169 10.9066C12.2169 11.2573 11.9316 11.5425 11.5809 11.5425H10.5566V9.88231H12.2169V10.9066Z" fill="#FF0049"/>
<path d="M5.27829 3.67572H7.72174C7.93796 3.67572 8.11331 3.50037 8.11331 3.28415C8.11331 3.06783 7.93796 2.89258 7.72174 2.89258H5.27829C5.06207 2.89258 4.88672 3.06783 4.88672 3.28415C4.88672 3.50037 5.06207 3.67572 5.27829 3.67572Z" fill="#FF0049"/>
</g>
<defs>
<clipPath id="clip0_29_141">
<rect width="13" height="13" fill="white"/>
</clipPath>
</defs>
</svg>
