<svg width="15" height="15" viewBox="0 0 15 15" fill="none" xmlns="http://www.w3.org/2000/svg">
<g clip-path="url(#clip0_29_110)">
<path d="M8.81836 5.33192H11.1976L8.81836 2.95264V5.33192Z" fill="#FF0049"/>
<path d="M3.51562 6.21094H4.39453V7.08984H3.51562V6.21094Z" fill="#FF0049"/>
<path d="M7.93945 5.77148V2.69531H1.34766C1.10496 2.69531 0.908203 2.89207 0.908203 3.13477V14.5605C0.908203 14.8032 1.10496 15 1.34766 15H11.0156C11.2583 15 11.4551 14.8032 11.4551 14.5605V6.21094H8.37891C8.13621 6.21094 7.93945 6.01418 7.93945 5.77148ZM2.63672 5.77148C2.63672 5.52879 2.83348 5.33203 3.07617 5.33203H4.83398C5.07668 5.33203 5.27344 5.52879 5.27344 5.77148V7.5293C5.27344 7.77199 5.07668 7.96875 4.83398 7.96875H3.07617C2.83348 7.96875 2.63672 7.77199 2.63672 7.5293V5.77148ZM6.62109 13.2422H3.10547C2.86277 13.2422 2.66602 13.0454 2.66602 12.8027C2.66602 12.56 2.86277 12.3633 3.10547 12.3633H6.62109C6.86379 12.3633 7.06055 12.56 7.06055 12.8027C7.06055 13.0454 6.86379 13.2422 6.62109 13.2422ZM9.25781 11.4844H3.10547C2.86277 11.4844 2.66602 11.2876 2.66602 11.0449C2.66602 10.8022 2.86277 10.6055 3.10547 10.6055H9.25781C9.50051 10.6055 9.69727 10.8022 9.69727 11.0449C9.69727 11.2876 9.50051 11.4844 9.25781 11.4844ZM9.25781 9.72656H3.10547C2.86277 9.72656 2.66602 9.5298 2.66602 9.28711C2.66602 9.04441 2.86277 8.84766 3.10547 8.84766H9.25781C9.50051 8.84766 9.69727 9.04441 9.69727 9.28711C9.69727 9.5298 9.50051 9.72656 9.25781 9.72656ZM9.69727 7.5293C9.69727 7.77199 9.50051 7.96875 9.25781 7.96875H6.62109C6.3784 7.96875 6.18164 7.77199 6.18164 7.5293C6.18164 7.2866 6.3784 7.08984 6.62109 7.08984H9.25781C9.50051 7.08984 9.69727 7.2866 9.69727 7.5293Z" fill="#FF0049"/>
<path d="M11.0156 3.51562C10.7729 3.51562 10.5762 3.31887 10.5762 3.07617V0H3.98438C3.74168 0 3.54492 0.196758 3.54492 0.439453V1.81641H8.37891C8.73105 1.81641 9.06211 1.95354 9.31113 2.20254L11.9479 4.83926C12.1968 5.08828 12.334 5.41934 12.334 5.77148V12.3047H13.6523C13.895 12.3047 14.0918 12.1079 14.0918 11.8652V3.51562H11.0156Z" fill="#FF0049"/>
<path d="M11.4551 0.257324V2.63661H13.8344L11.4551 0.257324Z" fill="#FF0049"/>
</g>
<defs>
<clipPath id="clip0_29_110">
<rect width="15" height="15" fill="white"/>
</clipPath>
</defs>
</svg>
