<svg width="15" height="12" viewBox="0 0 15 12" fill="none" xmlns="http://www.w3.org/2000/svg">
<path d="M0 9.85353V10.795C0 11.0376 0.196758 11.2344 0.439453 11.2344C0.682148 11.2344 0.878906 11.0376 0.878906 10.795V10.293H14.1211V10.795C14.1211 11.0376 14.3179 11.2344 14.5605 11.2344C14.8032 11.2344 15 11.0376 15 10.795V9.85353V8.41016H0V9.85353Z" fill="#FF0049"/>
<path d="M13.3838 4.70703H1.61619C0.725039 4.70703 0 5.43207 0 6.32325V7.53125H15V6.32325C15 5.43207 14.275 4.70703 13.3838 4.70703Z" fill="#FF0049"/>
<path d="M5.85258 2.76172C5.446 2.76172 5.11523 3.09245 5.11523 3.499V3.8281H9.88477V3.499C9.88477 3.09245 9.55403 2.76172 9.14748 2.76172H5.85258Z" fill="#FF0049"/>
<path d="M4.23629 3.49901C4.23629 2.60783 4.96133 1.88282 5.85254 1.88282H9.14747C10.0387 1.88282 10.7637 2.60783 10.7637 3.49901V3.82811H13.1172V1.61619C13.1172 0.72501 12.3922 0 11.5009 0H3.499C2.60782 0 1.88281 0.72501 1.88281 1.61619V3.82811H4.23629V3.49901Z" fill="#FF0049"/>
</svg>
