<svg width="48" height="48" viewBox="0 0 48 48" fill="none" xmlns="http://www.w3.org/2000/svg">
<path d="M6 19.5H16.5V9.00002C16.4997 8.65854 16.616 8.32718 16.8295 8.06071C17.0431 7.79425 17.3412 7.60862 17.6745 7.53452L44.6745 1.53452C44.8939 1.48575 45.1214 1.4869 45.3403 1.53789C45.5592 1.58887 45.7638 1.68838 45.939 1.82907C46.1143 1.96976 46.2557 2.14803 46.3528 2.35071C46.4499 2.55338 46.5002 2.77529 46.5 3.00002V45C46.5 45.3978 46.342 45.7794 46.0607 46.0607C45.7794 46.342 45.3978 46.5 45 46.5C44.8906 46.4998 44.7815 46.4882 44.6745 46.4655L17.6745 40.4655C17.3412 40.3914 17.0431 40.2058 16.8295 39.9393C16.616 39.6729 16.4997 39.3415 16.5 39V25.5H29.379L24.4395 30.4395C24.2962 30.5779 24.182 30.7434 24.1033 30.9264C24.0247 31.1094 23.9834 31.3062 23.9816 31.5054C23.9799 31.7046 24.0178 31.9021 24.0933 32.0864C24.1687 32.2708 24.2801 32.4383 24.4209 32.5791C24.5617 32.7199 24.7292 32.8313 24.9136 32.9068C25.0979 32.9822 25.2954 33.0201 25.4946 33.0184C25.6938 33.0167 25.8906 32.9753 26.0736 32.8967C26.2566 32.8181 26.4221 32.7038 26.5605 32.5605L34.0605 25.0605C34.3417 24.7792 34.4997 24.3978 34.4997 24C34.4997 23.6023 34.3417 23.2208 34.0605 22.9395L26.5605 15.4395C26.2776 15.1663 25.8987 15.0151 25.5054 15.0185C25.1121 15.0219 24.7359 15.1797 24.4578 15.4578C24.1797 15.7359 24.0219 16.1121 24.0185 16.5054C24.0151 16.8987 24.1663 17.2776 24.4395 17.5605L29.379 22.5H6C5.60218 22.5 5.22064 22.342 4.93934 22.0607C4.65804 21.7794 4.5 21.3978 4.5 21C4.5 20.6022 4.65804 20.2207 4.93934 19.9394C5.22064 19.6581 5.60218 19.5 6 19.5Z" fill="#FF0049"/>
</svg>
