<svg width="15" height="15" viewBox="0 0 15 15" fill="none" xmlns="http://www.w3.org/2000/svg">
<g clip-path="url(#clip0_29_150)">
<path fill-rule="evenodd" clip-rule="evenodd" d="M0.46875 3.75C0.46875 1.93781 1.93781 0.46875 3.75 0.46875H11.25C13.0622 0.46875 14.5312 1.93781 14.5312 3.75V14.0625C14.5312 14.2388 14.4323 14.4002 14.2752 14.4802C14.1181 14.5602 13.9294 14.5453 13.7868 14.4416L11.3319 12.6562H3.75C1.93781 12.6562 0.46875 11.1872 0.46875 9.375V3.75ZM3.98438 4.21875C3.72548 4.21875 3.51562 4.42861 3.51562 4.6875C3.51562 4.94639 3.72548 5.15625 3.98438 5.15625H11.0156C11.2745 5.15625 11.4844 4.94639 11.4844 4.6875C11.4844 4.42861 11.2745 4.21875 11.0156 4.21875H3.98438ZM3.98438 7.03125C3.72548 7.03125 3.51562 7.24111 3.51562 7.5C3.51562 7.75889 3.72548 7.96875 3.98438 7.96875H6.79688C7.05577 7.96875 7.26562 7.75889 7.26562 7.5C7.26562 7.24111 7.05577 7.03125 6.79688 7.03125H3.98438Z" fill="#FF0049"/>
</g>
<defs>
<clipPath id="clip0_29_150">
<rect width="15" height="15" fill="white"/>
</clipPath>
</defs>
</svg>
