<svg width="48" height="47" viewBox="0 0 48 47" fill="none" xmlns="http://www.w3.org/2000/svg">
<path d="M21.5 2.13672V10.7502H30.1134L21.5 2.13672Z" fill="black"/>
<path d="M8.0625 32.25V29.5625H20.4653C20.7436 28.3821 21.1965 27.2498 21.8091 26.2031H8.0625V23.5156H23.9053C25.814 21.6812 28.2751 20.5286 30.9062 20.2369V13.4375H20.1562C19.7999 13.4375 19.4581 13.2959 19.2061 13.0439C18.9541 12.7919 18.8125 12.4501 18.8125 12.0938V1.34375H2.6875C2.33112 1.34375 1.98933 1.48532 1.73733 1.73733C1.48532 1.98933 1.34375 2.33112 1.34375 2.6875V37.625C1.34375 37.9814 1.48532 38.3232 1.73733 38.5752C1.98933 38.8272 2.33112 38.9688 2.6875 38.9688H22.1988C20.8639 36.9826 20.1527 34.643 20.1562 32.25H8.0625ZM8.0625 17.4688H18.8125V20.1562H8.0625V17.4688Z" fill="#FF0049"/>
<path d="M40.7614 24.3272C40.2347 23.9108 39.6678 23.5479 39.0691 23.244C37.5055 22.424 35.7659 21.9971 34.0004 22C31.8991 21.9992 29.8416 22.6004 28.0714 23.7327C26.3012 24.865 24.8924 26.4808 24.0119 28.3889C23.1314 30.2969 22.816 32.4174 23.1031 34.4991C23.3901 36.5809 24.2676 38.5368 25.6316 40.1354C26.0996 40.6852 26.6212 41.1869 27.1886 41.6332C28.3243 42.5302 29.6258 43.1942 31.0186 43.587C32.4114 43.9799 33.868 44.094 35.305 43.9227C36.7419 43.7515 38.1309 43.2982 39.3924 42.589C40.6538 41.8798 41.7629 40.9286 42.656 39.7898C43.5491 38.651 44.2087 37.3472 44.5969 35.953C44.9851 34.5588 45.0944 33.1017 44.9184 31.6652C44.7423 30.2287 44.2846 28.841 43.5712 27.5818C42.8579 26.3226 41.903 25.2166 40.7614 24.3272ZM38.2313 33.8477H34.8466V37.2327C34.8466 37.4571 34.7574 37.6724 34.5988 37.8311C34.4401 37.9898 34.2248 38.079 34.0004 38.079C33.776 38.079 33.5608 37.9898 33.4021 37.8311C33.2434 37.6724 33.1542 37.4571 33.1542 37.2327V33.8477H29.7695C29.5451 33.8477 29.3298 33.7585 29.1711 33.5998C29.0125 33.4411 28.9233 33.2258 28.9233 33.0014C28.9233 32.777 29.0125 32.5617 29.1711 32.403C29.3298 32.2443 29.5451 32.1551 29.7695 32.1551H33.1542V28.7701C33.1542 28.5457 33.2434 28.3304 33.4021 28.1717C33.5608 28.013 33.776 27.9238 34.0004 27.9238C34.2248 27.9238 34.4401 28.013 34.5988 28.1717C34.7574 28.3304 34.8466 28.5457 34.8466 28.7701V32.1551H38.2313C38.4558 32.1551 38.671 32.2443 38.8297 32.403C38.9884 32.5617 39.0775 32.777 39.0775 33.0014C39.0775 33.2258 38.9884 33.4411 38.8297 33.5998C38.671 33.7585 38.4558 33.8477 38.2313 33.8477Z" fill="black"/>
</svg>
