<svg width="63" height="63" viewBox="0 0 63 63" fill="none" xmlns="http://www.w3.org/2000/svg">
<path d="M25.6748 29C24.2454 29.4228 22.7546 29.4228 21.3252 29L19.0085 47.0137C18.9877 47.1755 19.0054 47.3412 19.0594 47.491C19.1134 47.6407 19.2015 47.7681 19.313 47.8578L23.046 50.8609C23.1587 50.9517 23.2905 51.0001 23.4253 51H23.5747C23.7095 51.0001 23.8413 50.9517 23.954 50.8609L27.687 47.8578C27.7985 47.7681 27.8866 47.6407 27.9406 47.491C27.9946 47.3412 28.0123 47.1755 27.9915 47.0138L25.6748 29Z" fill="#FF0049"/>
<path d="M23 26C24.5822 26 26.129 25.5308 27.4446 24.6518C28.7602 23.7727 29.7855 22.5233 30.391 21.0615C30.9965 19.5997 31.155 17.9911 30.8463 16.4393C30.5376 14.8874 29.7757 13.462 28.6569 12.3431C27.538 11.2243 26.1126 10.4624 24.5607 10.1537C23.0089 9.84504 21.4003 10.0035 19.9385 10.609C18.4767 11.2145 17.2273 12.2398 16.3482 13.5554C15.4692 14.871 15 16.4178 15 18C15.0024 20.121 15.846 22.1544 17.3458 23.6542C18.8456 25.154 20.879 25.9976 23 26Z" fill="#FF0049"/>
<path d="M8.12308 54.2857C7.93546 54.2855 7.75558 54.1951 7.6229 54.0344C7.49023 53.8737 7.4156 53.6558 7.41539 53.4286V36.2857C7.4175 34.0132 8.16379 31.8345 9.49051 30.2276C10.8172 28.6207 12.6161 27.7168 14.4923 27.7143H17.6334C16.9852 27.2303 16.3867 26.6549 15.8504 26H14.4923C12.2408 26.0031 10.0822 27.0877 8.49016 29.016C6.89809 30.9443 6.00255 33.5587 6 36.2857L6 53.4286C6.00061 54.1103 6.22449 54.7639 6.62251 55.246C7.02054 55.7281 7.56019 55.9993 8.12308 56H31C30.6103 55.4601 30.2529 54.8872 29.9305 54.2857H8.12308Z" fill="#FF0049"/>
<path d="M29.8511 26C29.2944 26.6806 28.673 27.2786 28 27.7816H31.261C32.5105 27.7834 33.7389 28.1717 34.8299 28.9099C35.921 29.6481 36.8386 30.7117 37.4959 32C37.9897 31.8211 38.492 31.6786 39 31.5734C38.2413 29.8878 37.1225 28.4809 35.7608 27.5002C34.3991 26.5196 32.8448 26.0014 31.261 26H29.8511Z" fill="#FF0049"/>
<path d="M42 32C39.8244 32 37.6977 32.6451 35.8887 33.8538C34.0798 35.0625 32.6699 36.7805 31.8373 38.7905C31.0048 40.8005 30.7869 43.0122 31.2114 45.146C31.6358 47.2798 32.6835 49.2398 34.2218 50.7782C35.7602 52.3165 37.7202 53.3642 39.854 53.7886C41.9878 54.2131 44.1995 53.9952 46.2095 53.1627C48.2195 52.3301 49.9375 50.9202 51.1462 49.1113C52.3549 47.3023 53 45.1756 53 43C52.9967 40.0836 51.8367 37.2876 49.7745 35.2255C47.7124 33.1633 44.9164 32.0033 42 32ZM46.6129 43.7097H42.7097V47.6129C42.7097 47.8011 42.6349 47.9816 42.5018 48.1147C42.3687 48.2478 42.1882 48.3226 42 48.3226C41.8118 48.3226 41.6313 48.2478 41.4982 48.1147C41.3651 47.9816 41.2903 47.8011 41.2903 47.6129V43.7097H37.3871C37.1989 43.7097 37.0184 43.6349 36.8853 43.5018C36.7522 43.3687 36.6774 43.1882 36.6774 43C36.6774 42.8118 36.7522 42.6313 36.8853 42.4982C37.0184 42.3651 37.1989 42.2903 37.3871 42.2903H41.2903V38.3871C41.2903 38.1989 41.3651 38.0184 41.4982 37.8853C41.6313 37.7522 41.8118 37.6774 42 37.6774C42.1882 37.6774 42.3687 37.7522 42.5018 37.8853C42.6349 38.0184 42.7097 38.1989 42.7097 38.3871V42.2903H46.6129C46.8011 42.2903 46.9816 42.3651 47.1147 42.4982C47.2478 42.6313 47.3226 42.8118 47.3226 43C47.3226 43.1882 47.2478 43.3687 47.1147 43.5018C46.9816 43.6349 46.8011 43.7097 46.6129 43.7097Z" fill="#050505"/>
</svg>
