<svg width="42" height="42" viewBox="0 0 42 42" fill="none" xmlns="http://www.w3.org/2000/svg">
<g clip-path="url(#clip0_29_495)">
<path d="M10.3137 25.9368H0.301098V17.8877H10.3137V25.9368ZM5.7716 20.3674C5.04185 20.3674 4.45035 21.0596 4.45035 21.9109C4.45035 22.7649 5.04185 23.4553 5.7716 23.4553C6.50135 23.4553 7.09285 22.7649 7.09285 21.9109C7.09197 21.0596 6.50135 20.3674 5.7716 20.3674Z" fill="black"/>
<path d="M11.0566 16.4021H0.301098V10.4381C0.301098 8.98998 1.32135 7.81135 2.5761 7.81135H4.80822L5.71735 2.7311C5.90197 1.69423 6.45235 0.832353 7.22497 0.361603C7.8296 -0.0058965 8.52522 -0.0968965 9.1806 0.106979L33.643 7.68798C34.2826 7.88485 34.8487 8.35648 35.2355 9.0136L35.2162 9.02585C35.4428 9.43448 35.5793 9.91748 35.5793 10.4381V22.759C34.588 22.472 33.5406 22.3119 32.4556 22.3119C26.391 22.3119 21.4577 27.1209 21.4577 33.0324C21.4577 33.9879 21.5881 34.925 21.841 35.835H2.57697C1.32222 35.835 0.301973 34.6555 0.301973 33.2082V27.4227H11.0566C11.467 27.4227 11.7995 27.0902 11.7995 26.6799V17.145C11.7986 16.7337 11.4661 16.4021 11.0566 16.4021ZM29.0221 7.81135L8.73959 1.52535C8.49022 1.44835 8.2391 1.48335 7.9941 1.63123C7.59247 1.87623 7.28622 2.3846 7.17772 2.9936L6.31497 7.81135H29.0221Z" fill="#FF0049"/>
<path d="M32.4539 24.0645C37.5516 24.0645 41.6982 28.0877 41.6982 33.0323C41.6982 37.977 37.5525 42.0002 32.4539 42.0002C28.6266 42.0002 25.1494 39.6683 23.8001 36.1963C23.4072 35.1875 23.2086 34.1226 23.2086 33.0323C23.2086 28.0877 27.3561 24.0645 32.4539 24.0645ZM28.8917 33.9091H31.578V36.5953C31.578 37.0801 31.9709 37.4712 32.4539 37.4712C32.9377 37.4712 33.3297 37.0801 33.3297 36.5953V33.9091H36.016C36.4999 33.9091 36.8919 33.5171 36.8919 33.0323C36.8919 32.5485 36.499 32.1565 36.016 32.1565H33.3297V29.4702C33.3297 28.9855 32.9377 28.5943 32.4539 28.5943C31.97 28.5943 31.578 28.9855 31.578 29.4702V32.1565H28.8917C28.4079 32.1565 28.0159 32.5485 28.0159 33.0323C28.015 33.5171 28.4079 33.9091 28.8917 33.9091Z" fill="#22B404"/>
</g>
<defs>
<clipPath id="clip0_29_495">
<rect width="42" height="42" fill="white" transform="matrix(-1 0 0 1 42 0)"/>
</clipPath>
</defs>
</svg>
