<svg width="15" height="15" viewBox="0 0 15 15" fill="none" xmlns="http://www.w3.org/2000/svg">
<g clip-path="url(#clip0_29_155)">
<path d="M14.0625 5.875H13.0312C12.9375 5.875 12.8438 5.8125 12.8438 5.75C12.75 5.5 12.6562 5.25 12.5312 5C12.5 4.9375 12.5 4.84375 12.5938 4.75L13.3438 4C13.6875 3.625 13.6875 3.0625 13.3438 2.6875L12.3438 1.6875C11.9688 1.34375 11.4062 1.3125 11.0312 1.6875L10.2812 2.4375C10.1875 2.5 10.0938 2.5 10.0312 2.46875C9.78125 2.34375 9.53125 2.25 9.28125 2.15625C9.21875 2.125 9.15625 2.0625 9.15625 1.96875V0.9375C9.15625 0.4375 8.75 0 8.21875 0H6.78125C6.28125 0 5.84375 0.40625 5.84375 0.9375V1.96875C5.84375 2.0625 5.78125 2.15625 5.71875 2.15625C5.46875 2.25 5.21875 2.34375 4.96875 2.46875C4.90625 2.5 4.8125 2.5 4.75 2.4375L4 1.6875C3.625 1.34375 3.0625 1.3125 2.6875 1.6875L1.6875 2.71875C1.34375 3.09375 1.34375 3.65625 1.6875 4.03125L2.4375 4.78125C2.5 4.8125 2.5 4.90625 2.46875 4.96875C2.34375 5.21875 2.25 5.46875 2.15625 5.71875C2.125 5.78125 2.0625 5.84375 1.96875 5.84375H0.9375C0.4375 5.84375 0 6.25 0 6.78125V8.21875C0 8.71875 0.40625 9.15625 0.9375 9.15625H1.96875C2.0625 9.15625 2.15625 9.21875 2.15625 9.28125C2.25 9.53125 2.34375 9.78125 2.46875 10.0312C2.5 10.0938 2.5 10.1875 2.4375 10.25L1.6875 11C1.3125 11.375 1.3125 11.9375 1.6875 12.3125L2.6875 13.3125C3.03125 13.6562 3.625 13.6875 4 13.3125L4.75 12.5625C4.8125 12.5 4.90625 12.4688 5 12.5C5.25 12.625 5.5 12.7188 5.75 12.8125C5.8125 12.8438 5.875 12.9062 5.875 13V14.0625C5.875 14.5625 6.28125 15 6.8125 15H8.25C8.75 15 9.1875 14.5938 9.1875 14.0625V13.0312C9.1875 12.9375 9.25 12.8438 9.3125 12.8438C9.5625 12.75 9.8125 12.6562 10.0625 12.5312C10.125 12.5 10.2188 12.5 10.3125 12.5938L11.0625 13.3438C11.4375 13.6875 12 13.7188 12.375 13.3438L13.375 12.3438C13.75 11.9688 13.75 11.4062 13.375 11.0312L12.625 10.2812C12.5625 10.2188 12.5312 10.125 12.5625 10.0312C12.6875 9.78125 12.7812 9.53125 12.875 9.28125C12.9062 9.21875 12.9688 9.15625 13.0625 9.15625H14.0625C14.5625 9.15625 15 8.75 15 8.21875V6.78125C15 6.28125 14.5938 5.875 14.0625 5.875ZM10.0938 7.5C10.0938 8.90625 8.9375 10.0938 7.5 10.0938C6.0625 10.0938 4.90625 8.9375 4.90625 7.5C4.90625 6.0625 6.0625 4.90625 7.5 4.90625C8.9375 4.90625 10.0938 6.09375 10.0938 7.5Z" fill="#FF0049"/>
</g>
<defs>
<clipPath id="clip0_29_155">
<rect width="15" height="15" fill="white"/>
</clipPath>
</defs>
</svg>
