<svg width="13" height="13" viewBox="0 0 13 13" fill="none" xmlns="http://www.w3.org/2000/svg">
<g clip-path="url(#clip0_29_55)">
<path d="M11.9167 2.70852H9.20834V2.16684C9.20834 1.56937 8.72249 1.0835 8.125 1.0835H4.875C4.27753 1.0835 3.79166 1.56935 3.79166 2.16684V2.7085H1.08334C0.48585 2.70852 0 3.19437 0 3.79184V5.41684C0 6.01433 0.48585 6.50018 1.08334 6.50018H5.41668V6.22934C5.41668 6.07963 5.53782 5.9585 5.68753 5.9585H7.31253C7.46223 5.9585 7.58337 6.07963 7.58337 6.22934V6.50018H11.9167C12.5142 6.50018 13 6.01433 13 5.41684V3.79184C13 3.19437 12.5142 2.70852 11.9167 2.70852ZM8.125 2.70852H4.875V2.16684H8.125V2.70852Z" fill="#FF0049"/>
<path d="M12.8498 6.79227C12.7575 6.74652 12.6472 6.75711 12.5657 6.81899C12.3732 6.96473 12.1489 7.04169 11.9166 7.04169H7.58334V7.85419C7.58334 8.00389 7.4622 8.12503 7.3125 8.12503H5.6875C5.5378 8.12503 5.41666 8.00389 5.41666 7.85419V7.04169H1.08334C0.851119 7.04169 0.626844 6.96473 0.434281 6.81899C0.352549 6.75658 0.242531 6.74599 0.150211 6.79227C0.0581953 6.83805 0 6.93192 0 7.03483V10.8334C0 11.4308 0.48585 11.9167 1.08334 11.9167H11.9167C12.5142 11.9167 13 11.4309 13 10.8334V7.03483C13 6.93192 12.9418 6.83805 12.8498 6.79227Z" fill="#FF0049"/>
</g>
<defs>
<clipPath id="clip0_29_55">
<rect width="13" height="13" fill="white"/>
</clipPath>
</defs>
</svg>
